<?xml version="1.0" encoding="UTF-8" standalone="no"?>
<!-- Generator: Adobe Illustrator 14.0.0, SVG Export Plug-In . SVG Version: 6.00 Build 43363)  -->

<svg
   version="1.1"
   id="Ebene_1"
   x="0px"
   y="0px"
   width="944"
   height="514.07898"
   viewBox="0 0 944 514.079"
   enable-background="new 0 0 900 669.079"
   xml:space="preserve"
   sodipodi:docname="asset-pipeline2.svg"
   inkscape:version="1.3.2 (091e20e, 2023-11-25)"
   xmlns:inkscape="http://www.inkscape.org/namespaces/inkscape"
   xmlns:sodipodi="http://sodipodi.sourceforge.net/DTD/sodipodi-0.dtd"
   xmlns:xlink="http://www.w3.org/1999/xlink"
   xmlns="http://www.w3.org/2000/svg"
   xmlns:svg="http://www.w3.org/2000/svg"><defs
   id="defs47" /><sodipodi:namedview
   id="namedview47"
   pagecolor="#ffffff"
   bordercolor="#000000"
   borderopacity="0.25"
   inkscape:showpageshadow="2"
   inkscape:pageopacity="0.0"
   inkscape:pagecheckerboard="0"
   inkscape:deskcolor="#d1d1d1"
   inkscape:zoom="0.59283152"
   inkscape:cx="470.62275"
   inkscape:cy="461.34524"
   inkscape:window-width="1712"
   inkscape:window-height="958"
   inkscape:window-x="0"
   inkscape:window-y="39"
   inkscape:window-maximized="1"
   inkscape:current-layer="Ebene_1" />
<symbol
   id="File"
   viewBox="-14.795 -17.5 29.59 35">
	<g
   id="g1">
		<polygon
   fill="#92acfc"
   stroke="#000000"
   points="-14.295,17 14.295,17 14.295,-17 -14.295,-17 "
   id="polygon1" />
	</g>
</symbol>
<symbol
   id="Folder"
   viewBox="-22.968 -19.102 45.936 38.204">
	<g
   id="g2642_4_"
   transform="translate(-342.85714,-542.94643)">
		<g
   id="shadow_4_"
   transform="matrix(0.02262383,0,0,0.02086758,387.2653,580.34254)">
			
				<linearGradient
   id="rect6709_1_"
   gradientUnits="userSpaceOnUse"
   x1="-1339.0625"
   y1="-907512.62"
   x2="-1339.0625"
   y2="-907482.31"
   gradientTransform="matrix(3.167336e-5,0,0,-1.878082e-5,1018374.7,-1211132.4)">
				<stop
   offset="0"
   style="stop-color:#000000;stop-opacity:0"
   id="stop1" />
				<stop
   offset="0.5"
   style="stop-color:#000000"
   id="stop2" />
				<stop
   offset="1"
   style="stop-color:#000000;stop-opacity:0"
   id="stop3" />
			</linearGradient>
			<polygon
   id="rect6709_4_"
   opacity="0.4021"
   fill="url(#rect6709_1_)"
   enable-background="new    "
   points="-2632.625,-2229.094 -1293.062,-2229.094 -1293.062,-2707.375 -2632.625,-2707.375 "
   style="fill:url(#rect6709_1_)" />
			
				<radialGradient
   id="path6711_1_"
   cx="-51484.406"
   cy="-120073.91"
   r="4.4819002"
   gradientTransform="matrix(3.167336e-5,0,0,-1.878082e-5,1018375.4,-1211132.4)"
   gradientUnits="userSpaceOnUse">
				<stop
   offset="0"
   style="stop-color:#000000"
   id="stop4" />
				<stop
   offset="1"
   style="stop-color:#000000;stop-opacity:0"
   id="stop5" />
			</radialGradient>
			<path
   id="path6711_4_"
   opacity="0.4021"
   fill="url(#path6711_1_)"
   enable-background="new    "
   d="m -1293.062,-2229.094 v -478.281 c 142.875,-0.844 345.406,107.156 345.406,239.125 0,132.062 -159.438,239.156 -345.406,239.156 z"
   style="fill:url(#path6711_1_)" />
			
				<radialGradient
   id="path6713_1_"
   cx="-125962.78"
   cy="-120073.91"
   r="4.4819002"
   gradientTransform="matrix(-3.167336e-5,0,0,-1.878082e-5,1064077,-1211132.4)"
   gradientUnits="userSpaceOnUse">
				<stop
   offset="0"
   style="stop-color:#000000"
   id="stop6" />
				<stop
   offset="1"
   style="stop-color:#000000;stop-opacity:0"
   id="stop7" />
			</radialGradient>
			<path
   id="path6713_4_"
   opacity="0.4021"
   fill="url(#path6713_1_)"
   enable-background="new    "
   d="m -2632.625,-2229.094 v -478.281 c -142.875,-0.844 -345.406,107.156 -345.406,239.125 0,132.062 159.406,239.156 345.406,239.156 z"
   style="fill:url(#path6713_1_)" />
		</g>
		<path
   id="back_4_"
   fill="#9b9a9a"
   stroke="#000000"
   stroke-linecap="round"
   stroke-linejoin="round"
   d="m 324.068,528.385 c 0.021,-0.416 0.461,-0.834 0.877,-0.834 h 31.36 c 0.416,0 0.812,0.418 0.789,0.834 l -0.938,27.283 c -0.021,0.418 -0.459,0.834 -0.877,0.834 h -13.283 c -0.486,0 -1.236,0.316 -1.403,1.109 l -0.612,2.898 c -0.154,0.736 -0.883,1.039 -1.299,1.039 h -14.795 c -0.417,0 -0.812,-0.418 -0.79,-0.834 z" />
		<g
   id="front_4_">
			<path
   id="orange_4_"
   fill="#fca342"
   stroke="#ce5c00"
   stroke-linejoin="round"
   d="m 359.402,527.555 c 1.137,0.043 1.951,1.094 2.033,2.316 0.786,11.521 1.646,21.186 1.646,21.186 0.072,0.248 -0.165,0.494 -0.477,0.494 H 328.47 l -1.838,-21.82 c -0.112,-0.979 -0.463,-1.801 -1.539,-2.18 z" />
			<path
   id="path323_4_"
   fill="#ffffff"
   fill-opacity="0.0893"
   d="m 329.447,550.793 -1.158,-15.611 c 0,0 8.238,4.143 18.537,4.143 10.299,0 15.449,11.471 15.449,11.471 z" />
		</g>
	</g>
</symbol>
<symbol
   id="Folder_1"
   viewBox="-22.969 -19.102 45.937 38.203">
	<g
   id="g2642_3_"
   transform="translate(-342.85714,-542.94643)">
		<g
   id="shadow_3_"
   transform="matrix(0.02262383,0,0,0.02086758,387.2653,580.34254)">
			
				<linearGradient
   id="rect6709_2_"
   gradientUnits="userSpaceOnUse"
   x1="-1339.125"
   y1="-2518.2188"
   x2="-1339.125"
   y2="-2487.9111"
   gradientTransform="matrix(3.167336e-5,0,0,-1.878082e-5,1018374.7,-1211132.4)">
				<stop
   offset="0"
   style="stop-color:#000000;stop-opacity:0"
   id="stop8" />
				<stop
   offset="0.5"
   style="stop-color:#000000"
   id="stop9" />
				<stop
   offset="1"
   style="stop-color:#000000;stop-opacity:0"
   id="stop10" />
			</linearGradient>
			<polygon
   id="rect6709_3_"
   opacity="0.4021"
   fill="url(#rect6709_2_)"
   enable-background="new    "
   points="-2632.688,-2229.094 -1293.062,-2229.094 -1293.062,-2707.375 -2632.688,-2707.375 "
   style="fill:url(#rect6709_2_)" />
			
				<radialGradient
   id="path6711_2_"
   cx="-1120.3438"
   cy="-2468.25"
   r="4.4815998"
   gradientTransform="matrix(3.167336e-5,0,0,-1.878082e-5,1018375.4,-1211132.4)"
   gradientUnits="userSpaceOnUse">
				<stop
   offset="0"
   style="stop-color:#000000"
   id="stop11" />
				<stop
   offset="1"
   style="stop-color:#000000;stop-opacity:0"
   id="stop12" />
			</radialGradient>
			<path
   id="path6711_3_"
   opacity="0.4021"
   fill="url(#path6711_2_)"
   enable-background="new    "
   d="m -1293.062,-2229.094 v -478.281 c 142.875,-0.844 345.406,107.156 345.406,239.125 0,132.062 -159.5,239.156 -345.406,239.156 z"
   style="fill:url(#path6711_2_)" />
			
				<radialGradient
   id="path6713_2_"
   cx="-2805.375"
   cy="-2468.25"
   r="4.4815998"
   gradientTransform="matrix(-3.167336e-5,0,0,-1.878082e-5,1064077,-1211132.4)"
   gradientUnits="userSpaceOnUse">
				<stop
   offset="0"
   style="stop-color:#000000"
   id="stop13" />
				<stop
   offset="1"
   style="stop-color:#000000;stop-opacity:0"
   id="stop14" />
			</radialGradient>
			<path
   id="path6713_3_"
   opacity="0.4021"
   fill="url(#path6713_2_)"
   enable-background="new    "
   d="m -2632.688,-2229.094 v -478.281 c -142.875,-0.844 -345.406,107.156 -345.406,239.125 0,132.062 159.406,239.156 345.406,239.156 z"
   style="fill:url(#path6713_2_)" />
		</g>
		<path
   id="back_3_"
   fill="#9b9a9a"
   stroke="#000000"
   stroke-linecap="round"
   stroke-linejoin="round"
   d="m 324.067,528.385 c 0.021,-0.416 0.461,-0.834 0.877,-0.834 h 31.36 c 0.416,0 0.812,0.418 0.789,0.834 l -0.938,27.283 c -0.021,0.418 -0.461,0.834 -0.877,0.834 h -13.284 c -0.486,0 -1.236,0.316 -1.403,1.109 l -0.612,2.898 c -0.154,0.736 -0.883,1.039 -1.299,1.039 h -14.795 c -0.417,0 -0.812,-0.418 -0.79,-0.834 z" />
		<g
   id="front_3_">
			<path
   id="orange_3_"
   fill="#7fa1ff"
   stroke="#4410ff"
   stroke-linejoin="round"
   d="m 359.402,527.555 c 1.135,0.043 1.949,1.094 2.032,2.316 0.786,11.521 1.647,21.186 1.647,21.186 0.072,0.248 -0.166,0.494 -0.477,0.494 h -34.135 l -1.838,-21.82 c -0.112,-0.979 -0.463,-1.801 -1.539,-2.18 z" />
			<path
   id="path323_3_"
   fill="#ffffff"
   fill-opacity="0.0893"
   d="m 329.446,550.793 -1.158,-15.611 c 0,0 8.238,4.143 18.538,4.143 10.299,0 15.447,11.471 15.447,11.471 z" />
		</g>
	</g>
</symbol>
<symbol
   id="Klammer"
   viewBox="-9.875 -64 19.75 128">
	<path
   fill="none"
   stroke="#ef6060"
   stroke-width="2"
   d="m -9.875,63 c 21.75,0 -1.75,-63 19.75,-63 m -19.75,-63 c 21.75,0 -1.75,63 19.75,63"
   id="path14" />
</symbol>
<symbol
   id="Pfeil"
   viewBox="-20.396 -18.23 40.792 36.462">
	<polygon
   fill="#de22ff"
   stroke="#000000"
   points="19.695,-0.806 3.026,17.019 2.927,14.667 3.015,8.546 -19.896,8.648 -19.896,-9.587 3.015,-9.495 3.015,-17.046 "
   id="polygon14" />
</symbol>

<g
   id="g14">
	<g
   id="Ebene_2">
		
			<use
   xlink:href="#Folder"
   width="45.936001"
   height="38.203999"
   x="-22.968"
   y="-19.101999"
   transform="matrix(1,0,0,-1,42.9727,133.5337)"
   overflow="visible"
   id="use14" />
	</g>
	<text
   transform="translate(70.0039,142.4321)"
   font-family="MyriadPro-Regular"
   font-size="24px"
   id="text14">assets</text>
</g>
<g
   id="g15">
	<g
   id="Ebene_2_1_">
		
			<use
   xlink:href="#Folder"
   width="45.936001"
   height="38.203999"
   x="-22.968"
   y="-19.101999"
   transform="matrix(1,0,0,-1,86.8784,186.5337)"
   overflow="visible"
   id="use15" />
	</g>
	<text
   transform="translate(113.9097,195.4321)"
   font-family="MyriadPro-Regular"
   font-size="24px"
   id="text15">images</text>
</g>

<g
   id="g17"
   transform="translate(0,-170)">
	<g
   id="Ebene_2_3_">
		
			<use
   xlink:href="#Folder"
   width="45.936001"
   height="38.203999"
   x="-22.968"
   y="-19.101999"
   transform="matrix(1,0,0,-1,81.6851,476.981)"
   overflow="visible"
   id="use17" />
	</g>
	<text
   transform="translate(108.7163,485.8794)"
   font-family="MyriadPro-Regular"
   font-size="24px"
   id="text17">stylesheets</text>
</g>
<g
   id="g19"
   transform="matrix(0.92876545,0,0,1.0000799,38.287173,-0.01715883)">
	<g
   id="g18">
		<path
   fill="none"
   stroke="#f99532"
   stroke-width="2"
   d="m 229.628,239.388 c 176.125,-2.229 138.291,-41.837 295.808,-40.633"
   id="path17" />
		<path
   fill="#f99532"
   d="m 537.508,198.754 c -5.68,2.107 -12.728,5.703 -17.094,9.51 l 3.438,-9.51 -3.438,-9.51 c 4.366,3.807 11.414,7.404 17.094,9.51 z"
   id="path18" />
	</g>
</g>
<text
   font-family="MyriadPro-Regular"
   font-size="36px"
   id="text19"
   x="36.502899"
   y="59.550301">Asset Pipeline</text>
<g
   id="g20">
	<rect
   x="104.411"
   y="221.03999"
   fill="#ffc65f"
   stroke="#bc5e08"
   width="28.59"
   height="34"
   id="rect19" />
	<text
   transform="translate(140.4819,246.4321)"
   font-family="MyriadPro-Regular"
   font-size="24px"
   id="text20">rails.png</text>
</g>

<g
   id="g22"
   transform="translate(0,-170)">
	<rect
   x="104.411"
   y="513.987"
   fill="#ffc65f"
   stroke="#bc5e08"
   width="28.59"
   height="34"
   id="rect21" />
	<text
   transform="translate(140.4814,539.3794)"
   font-family="MyriadPro-Regular"
   font-size="24px"
   id="text22">application.css</text>
</g>
<g
   id="g23"
   transform="translate(0,-170)">
	<rect
   x="104.411"
   y="560.01801"
   fill="#ffc65f"
   stroke="#bc5e08"
   width="28.59"
   height="34"
   id="rect22" />
	<text
   transform="translate(140.4814,585.4126)"
   font-family="MyriadPro-Regular"
   font-size="24px"
   id="text23">main.css.sass</text>
</g>

<g
   id="g25"
   transform="translate(0,-170)">
	<rect
   x="104.411"
   y="604.01801"
   fill="#ffc65f"
   stroke="#bc5e08"
   width="28.59"
   height="34"
   id="rect24" />
	<text
   transform="translate(140.4819,629.4126)"
   font-family="MyriadPro-Regular"
   font-size="24px"
   id="text25">x.css.sass.erb</text>
</g>
<g
   id="g26">
	<g
   id="Ebene_2_4_">
		
			<use
   xlink:href="#Folder_1"
   width="45.937"
   height="38.202999"
   x="-22.969"
   y="-19.101999"
   transform="matrix(1,0,0,-1,465.4922,78.6528)"
   overflow="visible"
   id="use25" />
	</g>
	<text
   transform="translate(492.5234,87.5513)"
   font-family="MyriadPro-Regular"
   font-size="24px"
   id="text26">public</text>
</g>
<g
   id="g27">
	<g
   id="Ebene_2_5_">
		
			<use
   xlink:href="#Folder_1"
   width="45.937"
   height="38.202999"
   x="-22.969"
   y="-19.101999"
   transform="matrix(1,0,0,-1,500.4922,133.5073)"
   overflow="visible"
   id="use26" />
	</g>
	<text
   transform="translate(527.5234,142.4067)"
   font-family="MyriadPro-Regular"
   font-size="24px"
   id="text27">assets</text>
</g>
<g
   id="g28">
	
		<use
   xlink:href="#File"
   width="29.59"
   height="35"
   x="-14.795"
   y="-17.5"
   transform="matrix(1,0,0,-1,561.9912,197.5508)"
   overflow="visible"
   id="use27" />
	<text
   transform="translate(583.7676,205.9438)"
   font-family="MyriadPro-Regular"
   font-size="24px"
   id="text28">rails.png</text>
</g>
<g
   id="g29">
	<text
   transform="translate(583.7676,245.5522)"
   font-family="MyriadPro-Regular"
   font-size="24px"
   id="text29">rails-be8732da.png</text>
	
		<use
   xlink:href="#File"
   width="29.59"
   height="35"
   x="-14.795"
   y="-17.5"
   transform="matrix(1,0,0,-1,561.9912,237.3882)"
   overflow="visible"
   id="use29" />
</g>




<g
   id="g34"
   transform="translate(0,-170)">
	<text
   transform="translate(583.7676,491.1851)"
   font-family="MyriadPro-Regular"
   font-size="24px"
   id="text34">application.css</text>
	
		<use
   xlink:href="#File"
   width="29.59"
   height="35"
   x="-14.795"
   y="-17.5"
   transform="matrix(1,0,0,-1,561.8789,483.1226)"
   overflow="visible"
   id="use34" />
</g>
<g
   id="g35"
   transform="translate(0,-170)">
	<text
   transform="translate(583.7676,530.1733)"
   font-family="MyriadPro-Regular"
   font-size="24px"
   id="text35">application.css.gz</text>
	
		<use
   xlink:href="#File"
   width="29.59"
   height="35"
   x="-14.795"
   y="-17.5"
   transform="matrix(1,0,0,-1,562.5117,522.3589)"
   overflow="visible"
   id="use35" />
</g>
<g
   id="g36"
   transform="translate(0,-170)">
	<text
   transform="translate(583.7676,569.1626)"
   font-family="MyriadPro-Regular"
   font-size="24px"
   id="text36">application-3c9de844.css</text>
	
		<use
   xlink:href="#File"
   width="29.59"
   height="35"
   x="-14.795"
   y="-17.5"
   transform="matrix(1,0,0,-1,561.8789,561.5942)"
   overflow="visible"
   id="use36" />
</g>
<g
   id="g37"
   transform="translate(0,-170)">
	<text
   transform="translate(583.7676,608.1509)"
   font-family="MyriadPro-Regular"
   font-size="24px"
   id="text37">application-3c9de844.css.gz</text>
	
		<use
   xlink:href="#File"
   width="29.59"
   height="35"
   x="-14.795"
   y="-17.5"
   transform="matrix(1,0,0,-1,561.8789,600.1968)"
   overflow="visible"
   id="use37" />
</g>

<g
   id="g39"
   transform="translate(35.423217,-171.68682)">
	<text
   transform="translate(319.0518,584.2817)"
   font-family="MyriadPro-Regular"
   font-size="24px"
   id="text39">.css</text>
	
		<use
   xlink:href="#Pfeil"
   width="40.792"
   height="36.462002"
   x="-20.396"
   y="-18.23"
   transform="matrix(1,0,0,-1,297.4971,577.0474)"
   overflow="visible"
   id="use39" />
</g>
<g
   id="g40"
   transform="translate(38.796857,-168.31318)">
	<text
   transform="translate(317.9297,628.2817)"
   font-family="MyriadPro-Regular"
   font-size="24px"
   id="text40">.sass</text>
	
		<use
   xlink:href="#Pfeil"
   width="40.792"
   height="36.462002"
   x="-20.396"
   y="-18.23"
   transform="matrix(1,0,0,-1,295.5981,621.7134)"
   overflow="visible"
   id="use40" />
</g>
<g
   id="g41"
   transform="translate(52.291416,-168.31318)">
	<text
   transform="translate(410.4297,628.2817)"
   font-family="MyriadPro-Regular"
   font-size="24px"
   id="text41">.css</text>
	
		<use
   xlink:href="#Pfeil"
   width="40.792"
   height="36.462002"
   x="-20.396"
   y="-18.23"
   transform="matrix(1,0,0,-1,388.3589,621.3462)"
   overflow="visible"
   id="use41" />
</g>
<use
   xlink:href="#Klammer"
   width="19.75"
   height="128"
   x="-9.875"
   y="-64"
   transform="matrix(0.55348554,-0.76521064,-0.84117634,-0.64377999,441.43918,390.0035)"
   overflow="visible"
   id="use42" />


<g
   id="g47"
   transform="matrix(1.0886727,0,0,0.76915466,-58.403888,-57.237296)">
	<g
   id="g46">
		<path
   fill="none"
   stroke="#f99532"
   stroke-width="2"
   d="m 468.416,575.163 c 52.348,0 -5.835,-91.787 64.021,-91.787"
   id="path45" />
		<path
   fill="#f99532"
   d="m 544.508,483.375 c -5.68,2.105 -12.728,5.703 -17.094,9.51 l 3.438,-9.51 -3.438,-9.512 c 4.366,3.807 11.414,7.405 17.094,9.512 z"
   id="path46" />
	</g>
</g>
</svg>
