<?xml version="1.0" encoding="utf-8"?>
<!-- Generator: Adobe Illustrator 14.0.0, SVG Export Plug-In . SVG Version: 6.00 Build 43363)  -->
<!DOCTYPE svg PUBLIC "-//W3C//DTD SVG 1.1//EN" "http://www.w3.org/Graphics/SVG/1.1/DTD/svg11.dtd">
<svg version="1.1" xmlns="http://www.w3.org/2000/svg" xmlns:xlink="http://www.w3.org/1999/xlink" x="0px" y="0px" width="900px"
	 height="599px" viewBox="0 0 900 599" enable-background="new 0 0 900 599" xml:space="preserve">
<symbol  id="C0-C3" viewBox="-184.12 -33.633 368.24 67.266">
	<g id="c0_1_">

			<use xlink:href="#Commit"  width="161.396" height="111.496" id="XMLID_10_" x="-80.698" y="-55.748" transform="matrix(0.6033 0 0 0.6033 -135.4351 0)" overflow="visible"/>
		<text transform="matrix(1 0 0 -1 -155.4082 -12.5215)" font-family="'Ubuntu'" font-size="36">C0</text>
	</g>
	<g id="c1_1_">

			<use xlink:href="#Commit"  width="161.396" height="111.496" id="XMLID_9_" x="-80.698" y="-55.748" transform="matrix(0.6033 0 0 0.6033 1.4995 0)" overflow="visible"/>
		<g>
			<g>
				<line fill="none" stroke="#000000" stroke-width="4" x1="-47.182" y1="0" x2="-74.09" y2="0"/>
				<path d="M-78.813-2.049c3.307-0.999,5.456-1.919,8.108-2.983V5.057c-0.949-0.451-4.802-1.986-8.108-2.982
					c-3.539-1.07-6.748-1.801-8.829-2.062C-85.562-0.25-82.353-0.98-78.813-2.049z"/>
			</g>
		</g>
		<text transform="matrix(1 0 0 -1 -20.2441 -12.5215)" font-family="'Ubuntu'" font-size="36">C1</text>
	</g>
	<g id="c2_1_">

			<use xlink:href="#Commit"  width="161.396" height="111.496" id="XMLID_8_" x="-80.698" y="-55.748" transform="matrix(0.6033 0 0 0.6033 135.4346 0)" overflow="visible"/>
		<g>
			<g>
				<line fill="none" stroke="#000000" stroke-width="4" x1="87.015" y1="0" x2="60.107" y2="0"/>
				<path d="M55.384-2.049c3.307-0.999,5.456-1.919,8.108-2.983V5.057c-0.949-0.451-4.802-1.986-8.108-2.982
					c-3.539-1.07-6.748-1.801-8.829-2.062C48.636-0.25,51.845-0.98,55.384-2.049z"/>
			</g>
		</g>
		<text transform="matrix(1 0 0 -1 112.7227 -12.5215)" font-family="'Ubuntu'" font-size="36">C2</text>
	</g>
</symbol>
<symbol  id="C0bisC3" viewBox="-184.12 -33.633 368.24 67.266">
	<use xlink:href="#C0-C3"  width="368.24" height="67.266" x="-184.12" y="-33.633" overflow="visible"/>
</symbol>
<symbol  id="C0bisC4" viewBox="-184.12 -33.633 436.707 125.244">
	<g id="c4_3_">

			<use xlink:href="#Commit"  width="161.396" height="111.496" id="XMLID_4_" x="-80.698" y="-55.748" transform="matrix(0.6033 0 0 0.6033 203.9023 57.9785)" overflow="visible"/>
		<g>
			<g>
				<line fill="none" stroke="#000000" stroke-width="4" x1="154.218" y1="57.979" x2="127.311" y2="57.979"/>
				<path d="M122.587,55.931c3.307-0.999,5.456-1.919,8.108-2.983v10.089c-0.949-0.451-4.802-1.986-8.108-2.982
					c-3.539-1.07-6.748-1.801-8.829-2.062C115.839,57.729,119.048,56.999,122.587,55.931z"/>
			</g>
		</g>
		<text transform="matrix(1 0 0 -1 180.5205 45.457)" font-family="'Ubuntu'" font-size="36">C4</text>
	</g>
	<use xlink:href="#C0bisC3"  width="368.24" height="67.266" x="-184.12" y="-33.633" overflow="visible"/>
</symbol>
<symbol  id="C0bisC5echt" viewBox="-251.581 -91.612 571.63 183.224">
	<g id="c5_1_">

			<use xlink:href="#Commit"  width="161.396" height="111.496" id="XMLID_2_" x="-80.698" y="-55.748" transform="matrix(0.6033 0 0 0.6033 271.3638 -57.9795)" overflow="visible"/>
		<g>
			<g>
				<line fill="none" stroke="#000000" stroke-width="4" x1="222.756" y1="-58.021" x2="195.85" y2="-58.021"/>
				<path d="M191.125-60.069c3.307-0.999,5.457-1.919,8.109-2.983v10.089c-0.949-0.451-4.803-1.986-8.109-2.982
					c-3.539-1.07-6.748-1.801-8.828-2.062C184.377-58.271,187.586-59.001,191.125-60.069z"/>
			</g>
		</g>
		<text transform="matrix(1 0 0 -1 248.3242 -68.9277)" font-family="'Ubuntu'" font-size="36">C5</text>
	</g>

		<use xlink:href="#C0bisC4"  width="436.707" height="125.244" x="-184.12" y="-33.633" transform="matrix(1 0 0 1 -67.4614 0)" overflow="visible"/>
</symbol>
<symbol  id="Commit" viewBox="-80.698 -55.748 161.396 111.496">
	<path fill="#5BE2F4" stroke="#848484" stroke-width="6" d="M77.698,0c0,28.447-11.026,51.621-24.824,52.695v0.053H-52.621v-0.039
		C-66.537,51.898-77.698,28.619-77.698,0s11.161-51.898,25.077-52.709v-0.039H52.874v0.053C66.672-51.621,77.698-28.447,77.698,0z"
		/>
</symbol>
<g id="Frame0">
	<rect fill="#FFFFFF" width="900" height="599"/>
	<rect fill="none" width="450" height="470.923"/>
</g>
<g id="Frame1" display="none">
	<g id="main" display="inline">
		<rect x="293.111" y="41.238" fill="#D8D7D6" stroke="#7C7C7C" stroke-width="5" width="151.352" height="78.022"/>
		<g>
			<g>
				<line fill="none" stroke="#000000" stroke-width="4" x1="368.787" y1="119.26" x2="367.943" y2="183.706"/>
				<path d="M369.93,188.456c1.043-3.293,1.99-5.43,3.09-8.069l-10.088-0.132c0.438,0.955,1.923,4.827,2.876,8.146
					c1.023,3.553,1.712,6.771,1.946,8.855C368.043,195.18,368.815,191.98,369.93,188.456z"/>
			</g>
		</g>
		<text transform="matrix(1 0 0 1 315.2656 91.9858)" font-family="'Ubuntu'" font-size="36">main</text>
	</g>
	<g id="branch_1_" display="inline">
		<g>
			<g>
				<line fill="none" stroke="#000000" stroke-width="4" x1="366.509" y1="353.495" x2="365.78" y2="276.968"/>
				<path d="M363.687,272.264c-0.968,3.316-1.867,5.474-2.906,8.137l10.089-0.096c-0.461-0.945-2.032-4.783-3.06-8.08
					c-1.104-3.529-1.865-6.73-2.146-8.809C365.421,265.499,364.721,268.715,363.687,272.264z"/>
			</g>
		</g>
		<rect x="292.268" y="349" fill="#D8D7D6" stroke="#7C7C7C" stroke-width="5" width="151.352" height="78.022"/>
		<text transform="matrix(1 0 0 1 324.897 399.8472)" font-family="'Ubuntu'" font-size="36">iss53</text>
	</g>

		<use xlink:href="#C0-C3"  width="368.24" height="67.266" x="-184.12" y="-33.633" transform="matrix(1 0 0 -1 232.3525 232.0264)" display="inline" overflow="visible"/>
</g>
<g id="Frame2">

		<use xlink:href="#C0bisC3"  width="368.24" height="67.266" id="XMLID_5_" x="-184.12" y="-33.633" transform="matrix(1 0 0 -1 235.8809 235.4614)" overflow="visible"/>
	<g id="master_2_">
		<rect x="293.255" y="41.569" fill="#D8D7D6" stroke="#7C7C7C" stroke-width="5" width="151.352" height="78.022"/>
		<g>
			<g>
				<line fill="none" stroke="#000000" stroke-width="4" x1="368.931" y1="119.591" x2="368.087" y2="184.037"/>
				<path d="M370.073,188.787c1.043-3.293,1.99-5.43,3.09-8.069l-10.088-0.132c0.438,0.955,1.923,4.827,2.876,8.146
					c1.023,3.553,1.712,6.771,1.946,8.855C368.187,195.511,368.959,192.312,370.073,188.787z"/>
			</g>
		</g>
		<text transform="matrix(1 0 0 1 315.4092 92.3169)" font-family="'Ubuntu'" font-size="36">main</text>
	</g>
	<g id="branch_2_">
		<g>
			<g>
				<line fill="none" stroke="#000000" stroke-width="4" x1="370.962" y1="358.748" x2="370.233" y2="282.221"/>
				<path d="M368.14,277.517c-0.968,3.316-1.867,5.474-2.906,8.137l10.089-0.096c-0.461-0.945-2.032-4.783-3.06-8.08
					c-1.104-3.529-1.865-6.73-2.146-8.809C369.874,270.752,369.174,273.968,368.14,277.517z"/>
			</g>
		</g>
		<rect x="296.721" y="354.253" fill="#D8D7D6" stroke="#7C7C7C" stroke-width="5" width="151.352" height="78.022"/>
		<text transform="matrix(1 0 0 1 329.3501 405.0996)" font-family="'Ubuntu'" font-size="36">iss53</text>
	</g>
</g>
<g id="Frame3" display="none">

		<use xlink:href="#C0bisC4"  width="436.707" height="125.244" x="-184.12" y="-33.633" transform="matrix(1 0 0 -1 300.8193 290.0059)" display="inline" overflow="visible"/>
	<g id="master_3_" display="inline">
		<rect x="426.976" y="41.758" fill="#D8D7D6" stroke="#7C7C7C" stroke-width="5" width="151.352" height="78.022"/>
		<g>
			<g>
				<line fill="none" stroke="#000000" stroke-width="4" x1="502.651" y1="119.78" x2="501.808" y2="184.225"/>
				<path d="M503.794,188.975c1.043-3.293,1.99-5.43,3.09-8.069l-10.088-0.132c0.438,0.955,1.923,4.827,2.876,8.146
					c1.023,3.553,1.712,6.771,1.946,8.855C501.907,195.699,502.68,192.5,503.794,188.975z"/>
			</g>
		</g>
		<text transform="matrix(1 0 0 1 449.1299 92.5054)" font-family="'Ubuntu'" font-size="36">main</text>
	</g>
	<g id="branch_3_" display="inline">
		<g>
			<g>
				<line fill="none" stroke="#000000" stroke-width="4" x1="509.228" y1="470.728" x2="508.499" y2="394.2"/>
				<path d="M506.405,389.496c-0.968,3.316-1.867,5.474-2.906,8.137l10.089-0.097c-0.461-0.944-2.032-4.782-3.06-8.079
					c-1.104-3.528-1.865-6.73-2.146-8.81C508.14,382.731,507.439,385.947,506.405,389.496z"/>
			</g>
		</g>
		<rect x="434.986" y="466.232" fill="#D8D7D6" stroke="#7C7C7C" stroke-width="5" width="151.352" height="78.022"/>
		<text transform="matrix(1 0 0 1 467.6152 517.0801)" font-family="'Ubuntu'" font-size="36">iss53</text>
	</g>
</g>
<g id="Frame4" display="none">

		<use xlink:href="#C0bisC5echt"  width="571.63" height="183.224" x="-251.581" y="-91.612" transform="matrix(1 0 0 -1 368.2808 290.0059)" display="inline" overflow="visible"/>
	<g id="master_4_" display="inline">
		<rect x="426.132" y="41.758" fill="#D8D7D6" stroke="#7C7C7C" stroke-width="5" width="151.352" height="78.022"/>
		<g>
			<g>
				<line fill="none" stroke="#000000" stroke-width="4" x1="501.808" y1="119.78" x2="500.964" y2="184.225"/>
				<path d="M502.95,188.975c1.043-3.293,1.99-5.43,3.09-8.069l-10.088-0.132c0.438,0.955,1.923,4.827,2.876,8.146
					c1.023,3.553,1.712,6.771,1.946,8.855C501.063,195.699,501.836,192.5,502.95,188.975z"/>
			</g>
		</g>
		<text transform="matrix(1 0 0 1 448.2861 92.5054)" font-family="'Ubuntu'" font-size="36">main</text>
	</g>
	<g id="branch_4_" display="inline">
		<g>
			<g>
				<line fill="none" stroke="#000000" stroke-width="4" x1="640.487" y1="473.222" x2="639.759" y2="396.694"/>
				<path d="M637.665,391.99c-0.968,3.316-1.867,5.474-2.906,8.137l10.089-0.097c-0.461-0.944-2.032-4.782-3.06-8.079
					c-1.104-3.528-1.865-6.73-2.146-8.81C639.399,385.226,638.699,388.441,637.665,391.99z"/>
			</g>
		</g>
		<rect x="566.246" y="468.727" fill="#D8D7D6" stroke="#7C7C7C" stroke-width="5" width="151.352" height="78.022"/>
		<text transform="matrix(1 0 0 1 598.875 519.5742)" font-family="'Ubuntu'" font-size="36">iss53</text>
	</g>
</g>
<g id="Frame5" display="none">
	<g id="c6" display="inline">

			<use xlink:href="#Commit"  width="161.396" height="111.496" id="XMLID_7_" x="-80.698" y="-55.748" transform="matrix(0.6033 0 0 -0.6033 734.0723 232.0264)" overflow="visible"/>
		<g>
			<g>
				<line fill="none" stroke="#000000" stroke-width="4" x1="697.729" y1="265.657" x2="676.142" y2="304.989"/>
				<path d="M675.665,310.115c2.467-2.418,4.308-3.859,6.517-5.672l-8.845-4.854c-0.061,1.049-0.568,5.165-1.286,8.543
					c-0.765,3.617-1.668,6.782-2.44,8.732C670.842,315.166,673.025,312.704,675.665,310.115z"/>
			</g>
		</g>
		<g>
			<g>
				<line fill="none" stroke="#000000" stroke-width="4" x1="684.551" y1="232.026" x2="564.404" y2="232.026"/>
				<path d="M559.681,234.075c3.307,0.999,5.456,1.919,8.108,2.983V226.97c-0.949,0.451-4.802,1.986-8.108,2.982
					c-3.539,1.07-6.748,1.801-8.829,2.062C552.933,232.276,556.142,233.007,559.681,234.075z"/>
			</g>
		</g>
		<text transform="matrix(1 0 0 1 709.3398 244.5493)" font-family="'Ubuntu'" font-size="36">C6</text>
	</g>
	<g id="branch" display="inline">
		<g>
			<g>
				<line fill="none" stroke="#000000" stroke-width="4" x1="639.645" y1="470.923" x2="638.916" y2="394.396"/>
				<path d="M636.822,389.691c-0.968,3.316-1.867,5.474-2.906,8.137l10.089-0.096c-0.461-0.945-2.032-4.783-3.06-8.08
					c-1.104-3.529-1.865-6.73-2.146-8.809C638.557,382.927,637.856,386.143,636.822,389.691z"/>
			</g>
		</g>
		<rect x="565.403" y="466.428" fill="#D8D7D6" stroke="#7C7C7C" stroke-width="5" width="151.352" height="78.022"/>
		<text transform="matrix(1 0 0 1 598.0332 517.2754)" font-family="'Ubuntu'" font-size="36">iss53</text>
	</g>
	<g id="master_1_" display="inline">
		<rect x="655.976" y="42" fill="#D8D7D6" stroke="#7C7C7C" stroke-width="5" width="151.352" height="78.022"/>
		<g>
			<g>
				<line fill="none" stroke="#000000" stroke-width="4" x1="731.651" y1="120.022" x2="730.808" y2="184.467"/>
				<path d="M732.794,189.218c1.043-3.294,1.99-5.431,3.09-8.069l-10.088-0.132c0.438,0.955,1.923,4.827,2.876,8.146
					c1.023,3.553,1.712,6.771,1.946,8.855C730.907,195.941,731.68,192.742,732.794,189.218z"/>
			</g>
		</g>
		<text transform="matrix(1 0 0 1 678.1299 92.7476)" font-family="'Ubuntu'" font-size="36">main</text>
	</g>

		<use xlink:href="#C0bisC5echt"  width="571.63" height="183.224" x="-251.581" y="-91.612" transform="matrix(1 0 0 -1 368.2803 290.0059)" display="inline" overflow="visible"/>
</g>
</svg>
