<?xml version="1.0" encoding="utf-8"?>
<!-- Generator: Adobe Illustrator 24.1.0, SVG Export Plug-In . SVG Version: 6.00 Build 0)  -->
<svg version="1.1" id="Ebene_1" xmlns="http://www.w3.org/2000/svg" xmlns:xlink="http://www.w3.org/1999/xlink" x="0px" y="0px"
	 viewBox="0 0 592 250" style="enable-background:new 0 0 592.5 250;" xml:space="preserve">
<style type="text/css">
	.st0{fill:#92ACFC;stroke:#000000;}
	.st1{opacity:0.4021;fill:url(#rect6709_1_);enable-background:new    ;}
	.st2{opacity:0.4021;fill:url(#path6711_1_);enable-background:new    ;}
	.st3{opacity:0.4021;fill:url(#path6713_1_);enable-background:new    ;}
	.st4{fill:#9B9A9A;stroke:#000000;stroke-linecap:round;stroke-linejoin:round;}
	.st5{fill:#7FA1FF;stroke:#4410FF;stroke-linejoin:round;}
	.st6{fill:#FFFFFF;fill-opacity:8.930000e-02;}
	.fill-white{fill:#FFFFFF}
	.stroke-black{stroke:#000000;}
	.st8{fill:#FFCC33;stroke:#000000;}
	.st9{font-family:'CourierNewPS-BoldMT';}
	.st10{font-size:12px;}
	.st11{fill:#C822FF;stroke:#000000;}
	.st12{font-family:'LucidaGrande';}
	.st13{font-size:14px;}
	.font-size-20{font-size:20px;}
	.st14{fill:none;stroke:#000000;stroke-width:2;}
	.st15{fill:#E57373;stroke:#000000;}
	.st16{clip-path:url(#SVGID_4_);}
	.st17{clip-path:url(#SVGID_8_);}
	.st18{clip-path:url(#SVGID_12_);}
	.st19{clip-path:url(#SVGID_16_);}
	.st20{font-family:'LucidaGrande-Bold';}
</style>
<symbol  id="File" viewBox="-14.8 -17.5 29.6 35">
	<g>
		<polygon class="st0" points="-14.3,17 14.3,17 14.3,-17 -14.3,-17 		"/>
	</g>
</symbol>
<symbol  id="Folder_1" viewBox="-23 -19.1 45.9 38.2">
	<g id="g2642_2_" transform="translate(-342.85714,-542.94643)">
		<g id="shadow_2_" transform="matrix(2.262383e-2,0,0,2.086758e-2,387.2653,580.34254)">
			
				<linearGradient id="rect6709_1_" gradientUnits="userSpaceOnUse" x1="-1340.2356" y1="-2518.1887" x2="-1340.2356" y2="-2487.8818" gradientTransform="matrix(5.118377e-04 0 0 4.354559e-04 691146.125 -812434.5)">
				<stop  offset="0" style="stop-color:#000000;stop-opacity:0"/>
				<stop  offset="0.5" style="stop-color:#000000"/>
				<stop  offset="1" style="stop-color:#000000;stop-opacity:0"/>
			</linearGradient>
			<polygon id="rect6709_2_" class="st1" points="-2632.7,-2228 -1293.1,-2228 -1293.1,-2706.2 -2632.7,-2706.2 			"/>
			
				<radialGradient id="path6711_1_" cx="-1120.384" cy="-2467.0701" r="4.4811" gradientTransform="matrix(5.118377e-04 0 0 4.354559e-04 691146.125 -812434.5)" gradientUnits="userSpaceOnUse">
				<stop  offset="0" style="stop-color:#000000"/>
				<stop  offset="1" style="stop-color:#000000;stop-opacity:0"/>
			</radialGradient>
			<path id="path6711_2_" class="st2" d="M-1293.1-2228v-478.2c142.9-0.8,345.4,107.2,345.4,239.1
				C-947.7-2335-1107.2-2228-1293.1-2228z"/>
			
				<radialGradient id="path6713_1_" cx="-2805.3713" cy="-2467.0701" r="4.4811" gradientTransform="matrix(5.118377e-04 0 0 4.354559e-04 691146.125 -812434.5)" gradientUnits="userSpaceOnUse">
				<stop  offset="0" style="stop-color:#000000"/>
				<stop  offset="1" style="stop-color:#000000;stop-opacity:0"/>
			</radialGradient>
			<path id="path6713_2_" class="st3" d="M-2632.7-2228v-478.2c-142.9-0.8-345.4,107.2-345.4,239.1
				C-2978.1-2335-2818.7-2228-2632.7-2228z"/>
		</g>
		<path id="back_2_" class="st4" d="M324.1,528.4c0-0.4,0.5-0.8,0.9-0.8h31.4c0.4,0,0.8,0.4,0.8,0.8l-0.9,27.3
			c0,0.4-0.5,0.8-0.9,0.8H342c-0.5,0-1.2,0.3-1.4,1.1l-0.6,2.9c-0.2,0.7-0.9,1-1.3,1h-14.8c-0.4,0-0.8-0.4-0.8-0.8L324.1,528.4z"/>
		<g id="front_2_">
			<path id="orange_2_" class="st5" d="M359.4,527.6c1.1,0,1.9,1.1,2,2.3c0.8,11.5,1.6,21.2,1.6,21.2c0.1,0.2-0.2,0.5-0.5,0.5h-34.1
				l-1.8-21.8c-0.1-1-0.5-1.8-1.5-2.2H359.4z"/>
			<path id="path323_2_" class="st6" d="M329.4,550.8l-1.2-15.6c0,0,8.2,4.1,18.5,4.1s15.4,11.5,15.4,11.5H329.4L329.4,550.8z"/>
		</g>
	</g>
</symbol>
<g id="back">
	<rect id="fullbg" x="1" class="fill-white" width="590" height="250"/>
	<rect id="fullbg_1_" x="-1" y="88.5" class="fill-white stroke-black" width="595" height="59"/>
</g>
<g id="Ebene_1_1_">
	<g id="Pfeile">
		<g id="cache_write">
			<polygon id="arrow_1_" class="st8" points="180.9,221.1 164.2,203.2 164.1,205.6 164.2,211.7 47.8,211.2 47.8,230.2 164.2,229.7 
				164.2,237.3 			"/>
			<text id="text_1_" transform="matrix(1 0 0 1 58.6982 224.052)" class="st9 st10">write to cache</text>
		</g>
		<g id="read_original">
			<polygon id="arrow_2_" class="st11" points="526.7,177.7 510.3,194.6 510.1,194.4 510.1,187.1 48.4,186.7 48.4,168.5 510.1,169 
				510.1,161.5 			"/>
			<text id="text_2_" transform="matrix(1 0 0 1 226.5327 181.4464)" class="st9 st10">read original</text>
		</g>
		<g id="cache_read">
			<polygon id="arrow" class="st8" points="179.8,119.6 163.2,101.4 163.1,102.9 163.1,110.3 46.9,110.7 46.9,129.2 163.1,128.3 
				163.1,135.9 			"/>
			<text id="text" transform="matrix(1 0 0 1 52.6982 123.2637)" class="st9 st10">read from cache?</text>
		</g>
	</g>
	<g id="Gruppe_Cache">
		<text transform="matrix(1 0 0 1 166.3772 43.6633)" class="st12 st13">cache</text>
		<line class="st14" x1="183.8" y1="88" x2="183.8" y2="250"/>
		<g>
			<defs>
				<rect id="SVGID_1_" x="167.6" y="49.3" width="32.4" height="26.9"/>
			</defs>
			<clipPath id="SVGID_2_">
				<use xlink:href="#SVGID_1_"  style="overflow:visible;"/>
			</clipPath>
			<g transform="matrix(1 0 0 1 -1.525879e-05 -3.814697e-06)" style="clip-path:url(#SVGID_2_);">
				
					<use xlink:href="#Folder_1"  width="45.9" height="38.2" x="-23" y="-19.1" transform="matrix(0.7049 0 0 -0.7049 183.8134 62.7968)" style="overflow:visible;"/>
			</g>
		</g>
	</g>
	<g id="Gruppe_Prozess">
		<line class="st14" x1="43.8" y1="88" x2="43.8" y2="250"/>
		<circle class="st15" cx="44.8" cy="65.7" r="9.5"/>
		<text transform="matrix(1 0 0 1 19.9119 48.6578)" class="st12 st13">process</text>
	</g>
	<g id="Gruppe_Remote">
		<text transform="matrix(1 0 0 1 512.6648 49.5915)" class="st12 st13">data</text>
		<line class="st14" x1="529.2" y1="88" x2="529.2" y2="250"/>
		<g id="files">
			<g>
				<g>
					<defs>
						<rect id="SVGID_3_" x="504.1" y="57.4" width="14.8" height="17.5"/>
					</defs>
					<clipPath id="SVGID_4_">
						<use xlink:href="#SVGID_3_"  style="overflow:visible;"/>
					</clipPath>
					<g class="st16">
						<g>
							<defs>
								<rect id="SVGID_5_" x="504.1" y="57.4" width="14.8" height="17.5"/>
							</defs>
							<clipPath id="SVGID_6_">
								<use xlink:href="#SVGID_5_"  style="overflow:visible;"/>
							</clipPath>
							<g style="clip-path:url(#SVGID_6_);">
								
									<use xlink:href="#File"  width="29.6" height="35" x="-14.8" y="-17.5" transform="matrix(0.5 0 0 -0.5 511.4915 66.17)" style="overflow:visible;"/>
							</g>
						</g>
					</g>
				</g>
			</g>
			<g>
				<g>
					<defs>
						<rect id="SVGID_7_" x="511.5" y="61.7" width="14.8" height="17.5"/>
					</defs>
					<clipPath id="SVGID_8_">
						<use xlink:href="#SVGID_7_"  style="overflow:visible;"/>
					</clipPath>
					<g class="st17">
						<g>
							<defs>
								<rect id="SVGID_9_" x="511.5" y="61.7" width="14.8" height="17.5"/>
							</defs>
							<clipPath id="SVGID_10_">
								<use xlink:href="#SVGID_9_"  style="overflow:visible;"/>
							</clipPath>
							<g style="clip-path:url(#SVGID_10_);">
								
									<use xlink:href="#File"  width="29.6" height="35" x="-14.8" y="-17.5" transform="matrix(0.5 0 0 -0.5 518.8889 70.4146)" style="overflow:visible;"/>
							</g>
						</g>
					</g>
				</g>
			</g>
			<g>
				<g>
					<defs>
						<rect id="SVGID_11_" x="532" y="57.4" width="14.8" height="17.5"/>
					</defs>
					<clipPath id="SVGID_12_">
						<use xlink:href="#SVGID_11_"  style="overflow:visible;"/>
					</clipPath>
					<g class="st18">
						<g>
							<defs>
								<rect id="SVGID_13_" x="532" y="57.4" width="14.8" height="17.5"/>
							</defs>
							<clipPath id="SVGID_14_">
								<use xlink:href="#SVGID_13_"  style="overflow:visible;"/>
							</clipPath>
							<g style="clip-path:url(#SVGID_14_);">
								
									<use xlink:href="#File"  width="29.6" height="35" x="-14.8" y="-17.5" transform="matrix(0.5 0 0 -0.5 539.4431 66.17)" style="overflow:visible;"/>
							</g>
						</g>
					</g>
				</g>
			</g>
			<g>
				<g>
					<defs>
						<rect id="SVGID_15_" x="539.4" y="61.7" width="14.8" height="17.5"/>
					</defs>
					<clipPath id="SVGID_16_">
						<use xlink:href="#SVGID_15_"  style="overflow:visible;"/>
					</clipPath>
					<g class="st19">
						<g>
							<defs>
								<rect id="SVGID_17_" x="539.4" y="61.7" width="14.8" height="17.5"/>
							</defs>
							<clipPath id="SVGID_18_">
								<use xlink:href="#SVGID_17_"  style="overflow:visible;"/>
							</clipPath>
							<g style="clip-path:url(#SVGID_18_);">
								
									<use xlink:href="#File"  width="29.6" height="35" x="-14.8" y="-17.5" transform="matrix(0.5 0 0 -0.5 546.8406 70.4146)" style="overflow:visible;"/>
							</g>
						</g>
					</g>
				</g>
			</g>
		</g>
		<text transform="matrix(1 0 0 1 505.0488 32.7915)" class="st12 st13">remote</text>
	</g>
	<text transform="matrix(1 0 0 1 33.7861 27.0757)" class="st20 font-size-20">Caching</text>
</g>
</svg>
