<?xml version="1.0" encoding="utf-8"?>
<!-- Generator: Adobe Illustrator 14.0.0, SVG Export Plug-In . SVG Version: 6.00 Build 43363)  -->
<!DOCTYPE svg PUBLIC "-//W3C//DTD SVG 1.1//EN" "http://www.w3.org/Graphics/SVG/1.1/DTD/svg11.dtd">
<svg version="1.1" xmlns="http://www.w3.org/2000/svg" xmlns:xlink="http://www.w3.org/1999/xlink" x="0px" y="0px" width="592.5px"
	 height="96.167px" viewBox="0 0 592.5 96.167" enable-background="new 0 0 592.5 96.167" xml:space="preserve">
<symbol  id="File" viewBox="-14.795 -17.5 29.59 35">
	<g>
		<polygon fill="#92ACFC" stroke="#000000" points="-14.295,17 14.295,17 14.295,-17 -14.295,-17 		"/>
	</g>
</symbol>
<symbol  id="Folder_1" viewBox="-22.968 -19.101 45.937 38.202">
	<g id="g2642_2_" transform="translate(-342.85714,-542.94643)">
		<g id="shadow_2_" transform="matrix(2.262383e-2,0,0,2.086758e-2,387.2653,580.34254)">
			
				<linearGradient id="rect6709_1_" gradientUnits="userSpaceOnUse" x1="-1339.125" y1="-907543" x2="-1339.125" y2="-907512.6875" gradientTransform="matrix(0 0 0 0 1369387.75 -1615627.125)">
				<stop  offset="0" style="stop-color:#000000;stop-opacity:0"/>
				<stop  offset="0.5" style="stop-color:#000000"/>
				<stop  offset="1" style="stop-color:#000000;stop-opacity:0"/>
			</linearGradient>
			<polygon id="rect6709_2_" opacity="0.4021" fill="url(#rect6709_1_)" enable-background="new    " points="-2632.656,-2229.062 
				-1293.031,-2229.062 -1293.031,-2707.312 -2632.656,-2707.312 			"/>
			
				<radialGradient id="path6711_1_" cx="-51483.2812" cy="-120072.5" r="4.4818" gradientTransform="matrix(0 0 0 0 1369388.5 -1615627.125)" gradientUnits="userSpaceOnUse">
				<stop  offset="0" style="stop-color:#000000"/>
				<stop  offset="1" style="stop-color:#000000;stop-opacity:0"/>
			</radialGradient>
			<path id="path6711_2_" opacity="0.4021" fill="url(#path6711_1_)" enable-background="new    " d="M-1293.031-2229.062v-478.25
				c142.875-0.844,345.406,107.156,345.406,239.125C-947.625-2336.125-1107.156-2229.062-1293.031-2229.062z"/>
			
				<radialGradient id="path6713_1_" cx="-125963.5312" cy="-120072.5" r="4.4813" gradientTransform="matrix(0 0 0 0 1415090.25 -1615627.125)" gradientUnits="userSpaceOnUse">
				<stop  offset="0" style="stop-color:#000000"/>
				<stop  offset="1" style="stop-color:#000000;stop-opacity:0"/>
			</radialGradient>
			<path id="path6713_2_" opacity="0.4021" fill="url(#path6713_1_)" enable-background="new    " d="M-2632.656-2229.062v-478.25
				c-142.875-0.844-345.406,107.156-345.406,239.125C-2978.062-2336.125-2818.656-2229.062-2632.656-2229.062z"/>
		</g>
		<path id="back_2_" fill="#9B9A9A" stroke="#000000" stroke-linecap="round" stroke-linejoin="round" d="M324.068,528.386
			c0.021-0.416,0.461-0.834,0.877-0.834h31.36c0.416,0,0.812,0.418,0.789,0.834l-0.938,27.283c-0.021,0.418-0.461,0.834-0.877,0.834
			h-13.284c-0.486,0-1.236,0.315-1.403,1.109l-0.612,2.897c-0.154,0.736-0.883,1.039-1.299,1.039h-14.795
			c-0.417,0-0.812-0.418-0.79-0.834L324.068,528.386z"/>
		<g id="front_2_">
			<path id="orange_2_" fill="#7FA1FF" stroke="#4410FF" stroke-linejoin="round" d="M359.403,527.556
				c1.135,0.043,1.949,1.094,2.032,2.316c0.786,11.521,1.647,21.186,1.647,21.186c0.072,0.248-0.166,0.494-0.477,0.494H328.47
				l-1.838-21.82c-0.112-0.979-0.463-1.801-1.539-2.18L359.403,527.556z"/>
			<path id="path323_2_" fill="#FFFFFF" fill-opacity="0.0893" d="M329.447,550.794l-1.158-15.611c0,0,8.238,4.144,18.538,4.144
				c10.299,0,15.447,11.471,15.447,11.471L329.447,550.794L329.447,550.794z"/>
		</g>
	</g>
</symbol>
<g id="Ebene_2">
	<rect id="Bild1" fill="#FFFFFF" width="592.5" height="357.167"/>
</g>
<g id="Ebene_1">
	<line fill="none" stroke="#000000" stroke-width="2" x1="48.813" y1="101.54" x2="48.813" y2="325.708"/>
	<line fill="none" stroke="#000000" stroke-width="2" x1="183.813" y1="101.54" x2="183.813" y2="325.708"/>
	<line fill="none" stroke="#000000" stroke-width="2" x1="319.812" y1="108.038" x2="319.812" y2="332.206"/>
	<line fill="none" stroke="#000000" stroke-width="2" x1="529.166" y1="106.684" x2="529.166" y2="330.853"/>
	<text transform="matrix(1 0 0 1 33.7861 27.0757)" font-family="'LucidaGrande-Bold'" font-size="14">Where git stores your Data</text>
	<text transform="matrix(1 0 0 1 19.8438 57.6631)" font-family="'LucidaGrande'" font-size="14">workspace</text>
	<text transform="matrix(1 0 0 1 165.8584 56.7915)"><tspan x="0" y="0" font-family="'LucidaGrande'" font-size="14">index =</tspan><tspan x="-15.113" y="16.8" font-family="'LucidaGrande'" font-size="14">staging area</tspan></text>
	<text transform="matrix(1 0 0 1 304.2646 58.0732)"><tspan x="0" y="0" font-family="'LucidaGrande'" font-size="14">local</tspan><tspan x="-18.703" y="16.8" font-family="'LucidaGrande'" font-size="14">repository</tspan></text>
	<text transform="matrix(1 0 0 1 505.0488 56.7915)"><tspan x="0" y="0" font-family="'LucidaGrande'" font-size="14">remote</tspan><tspan x="-10.384" y="16.8" font-family="'LucidaGrande'" font-size="14">repository</tspan></text>
	<g id="commit_-a">
		<polygon fill="#FFA022" stroke="#000000" points="316.975,182.443 300.518,165.541 300.295,165.758 300.295,173.092 
			50.652,173.092 50.652,191.133 300.295,191.133 300.295,198.684 		"/>
		<text transform="matrix(1 0 0 1 139.8042 185.6523)" font-family="'CourierNewPS-BoldMT'" font-size="12">commit -a</text>
	</g>
	<g id="add">
		<polygon fill="#FFCC33" stroke="#000000" points="183.813,134.618 167.153,116.41 167.132,117.933 167.132,125.267 50.86,125.666 
			50.86,144.179 167.132,143.307 167.132,150.858 		"/>
		<text transform="matrix(1 0 0 1 103.6982 138.2637)" font-family="'CourierNewPS-BoldMT'" font-size="12">add</text>
	</g>
	<g id="commit">
		<polygon fill="#FFCC33" stroke="#000000" points="320.062,134.426 303.394,116.602 303.294,118.954 303.382,125.075 
			186.901,124.554 186.901,143.589 303.382,143.115 303.382,150.667 		"/>
		<text transform="matrix(1 0 0 1 213.3486 137.4209)" font-family="'CourierNewPS-BoldMT'" font-size="12">commit</text>
	</g>
	<g>
		<polygon fill="#C822FF" stroke="#000000" points="48.42,283.169 64.877,266.266 65.101,266.484 65.101,273.817 526.743,274.214 
			526.743,292.353 65.101,291.857 65.101,299.409 		"/>
		<text transform="matrix(1 0 0 1 226.5327 286.2314)" font-family="'CourierNewPS-BoldMT'" font-size="12">pull</text>
	</g>
	<g>
		<polygon fill="#227CFF" stroke="#000000" points="527.645,228.729 510.916,211.226 510.965,212.045 510.965,219.378 
			322.257,219.372 322.257,237.511 510.965,237.419 510.965,244.97 		"/>
		<text transform="matrix(1 0 0 1 437.21 232.126)" font-family="'CourierNewPS-BoldMT'" font-size="12">push</text>
	</g>
	<rect id="Bild2" fill="none" width="375.834" height="207.166"/>
	<g id="Ebene_2_4_">
		
			<use xlink:href="#Folder_1"  width="45.937" height="38.202" x="-22.968" y="-19.101" transform="matrix(0.7049 0 0 -0.7049 29.0298 77.8872)" overflow="visible"/>
	</g>
	
		<use xlink:href="#File"  width="29.59" height="35" x="-14.795" y="-17.5" transform="matrix(0.5 0 0 -0.5 55.8174 76.3799)" overflow="visible"/>
	
		<use xlink:href="#File"  width="29.59" height="35" x="-14.795" y="-17.5" transform="matrix(0.5 0 0 -0.5 63.2148 80.6245)" overflow="visible"/>
	
		<use xlink:href="#File"  width="29.59" height="35" x="-14.795" y="-17.5" transform="matrix(0.5 0 0 -0.5 83.769 76.3799)" overflow="visible"/>
	
		<use xlink:href="#File"  width="29.59" height="35" x="-14.795" y="-17.5" transform="matrix(0.5 0 0 -0.5 91.1665 80.6245)" overflow="visible"/>
</g>
</svg>
