<?xml version="1.0" encoding="UTF-8"?>
<svg width="600" height="200"
xmlns="http://www.w3.org/2000/svg"
xmlns:svg="http://www.w3.org/2000/svg"
xmlns:se="http://svg-edit.googlecode.com">
 <!-- Created with SVG-edit - http://svg-edit.googlecode.com/ -->
 <defs>
  <marker id="se_marker_end_svg_12" markerUnits="strokeWidth" orient="auto" viewBox="0 0 100 100" markerWidth="5" markerHeight="5" refX="50" refY="50">
   <path id="svg_1" d="m100,50l-100,40l30,-40l-30,-40l100,40z" fill="#000000" stroke="#000000" stroke-width="10"/>
  </marker>
  <marker id="se_marker_end_svg_13" markerUnits="strokeWidth" orient="auto" viewBox="0 0 100 100" markerWidth="5" markerHeight="5" refX="50" refY="50">
   <path id="svg_21" d="m100,50l-100,40l30,-40l-30,-40l100,40z" fill="#000000" stroke="#000000" stroke-width="10"/>
  </marker>
  <marker id="se_marker_end_svg_14" markerUnits="strokeWidth" orient="auto" viewBox="0 0 100 100" markerWidth="5" markerHeight="5" refX="50" refY="50">
   <path id="svg_22" d="m100,50l-100,40l30,-40l-30,-40l100,40z" fill="#000000" stroke="#000000" stroke-width="10"/>
  </marker>
  <marker id="se_marker_start_svg_15" markerUnits="strokeWidth" orient="auto" viewBox="0 0 100 100" markerWidth="5" markerHeight="5" refX="50" refY="50">
   <path id="svg_23" d="m0,50l100,40l-30,-40l30,-40l-100,40z" fill="#000000" stroke="#000000" stroke-width="10"/>
  </marker>
  <marker id="se_marker_start_svg_16" markerUnits="strokeWidth" orient="auto" viewBox="0 0 100 100" markerWidth="5" markerHeight="5" refX="50" refY="50">
   <path id="svg_24" d="m0,50l100,40l-30,-40l30,-40l-100,40z" fill="#000000" stroke="#000000" stroke-width="10"/>
  </marker>
  <marker id="se_marker_start_svg_17" markerUnits="strokeWidth" orient="auto" viewBox="0 0 100 100" markerWidth="5" markerHeight="5" refX="50" refY="50">
   <path id="svg_25" d="m0,50l100,40l-30,-40l30,-40l-100,40z" fill="#000000" stroke="#000000" stroke-width="10"/>
  </marker>
  <marker id="se_marker_start_svg_18" markerUnits="strokeWidth" orient="auto" viewBox="0 0 100 100" markerWidth="5" markerHeight="5" refX="50" refY="50">
   <path id="svg_26" d="m0,50l100,40l-30,-40l30,-40l-100,40z" fill="#000000" stroke="#000000" stroke-width="10"/>
  </marker>
  <marker id="se_marker_start_svg_19" markerUnits="strokeWidth" orient="auto" viewBox="0 0 100 100" markerWidth="5" markerHeight="5" refX="50" refY="50">
   <path id="svg_27" d="m0,50l100,40l-30,-40l30,-40l-100,40z" fill="#000000" stroke="#000000" stroke-width="10"/>
  </marker>
 </defs>
 <g>
  <title>Layer 1</title>
  <polyline id="svg_19" points="317,128.75 331.5,128.75 346,128.75" stroke="#000000" stroke-width="2" fill="none" marker-start="url(#se_marker_start_svg_19)"/>
  <polyline id="svg_18" points="255.5,128.75 271.75,128.75 288,128.75" stroke="#000000" stroke-width="2" fill="none" marker-start="url(#se_marker_start_svg_18)"/>
  <polyline id="svg_17" points="194.5,128.75 210.5,128.75 226.5,128.75" stroke="#000000" stroke-width="2" fill="none" marker-start="url(#se_marker_start_svg_17)"/>
  <polyline id="svg_16" points="133,88.9533 149.25,103.486 165.5,118.018" stroke="#000000" stroke-width="2" fill="none" marker-start="url(#se_marker_start_svg_16)"/>
  <polyline id="svg_12" points="104,73.75 87.75,73.75 71.5,73.75" stroke="#000000" stroke-width="2" fill="none" marker-end="url(#se_marker_end_svg_12)"/>
  <ellipse fill="#000000" stroke="#000000" stroke-width="2" fill-opacity="0" cx="54.5" cy="73.75" id="svg_2" rx="11" ry="11"/>
  <ellipse fill="#000000" stroke="#000000" stroke-width="2" fill-opacity="0" cx="100.5" cy="203.5" id="svg_3" rx="1"/>
  <ellipse fill="#000000" stroke="#000000" stroke-width="2" fill-opacity="0" cx="116" cy="73.75" rx="11" ry="11" id="svg_4"/>
  <ellipse fill="#000000" stroke="#000000" stroke-width="2" fill-opacity="0" cx="177.5" cy="128.75" rx="11" ry="11" id="svg_8"/>
  <ellipse fill="#000000" stroke="#000000" stroke-width="2" fill-opacity="0" cx="238.5" cy="128.75" rx="11" ry="11" id="svg_9"/>
  <ellipse fill="#000000" stroke="#000000" stroke-width="2" fill-opacity="0" cx="300" cy="128.75" rx="11" ry="11" id="svg_10"/>
  <ellipse fill="#000000" stroke="#000000" stroke-width="2" fill-opacity="0" cx="358" cy="128.75" rx="11" ry="11" id="svg_11"/>
  <text fill="#000000" stroke="#000000" stroke-width="0" stroke-dasharray="null" stroke-linejoin="null" stroke-linecap="null" x="118" y="51" id="svg_20" font-size="24" font-family="sans serif" text-anchor="middle" xml:space="preserve">A</text>
  <text style="cursor: move;" id="svg_31" fill="#000000" stroke="#000000" stroke-width="0" stroke-dasharray="null" stroke-linejoin="null" stroke-linecap="null" x="177" y="175" font-size="24" font-family="sans serif" text-anchor="middle" xml:space="preserve">W</text>
  <text style="cursor: move;" id="svg_32" fill="#000000" stroke="#000000" stroke-width="0" stroke-dasharray="null" stroke-linejoin="null" stroke-linecap="null" x="242" y="175" font-size="24" font-family="sans serif" text-anchor="middle" xml:space="preserve">X</text>
  <text style="cursor: move;" id="svg_33" fill="#000000" stroke="#000000" stroke-width="0" stroke-dasharray="null" stroke-linejoin="null" stroke-linecap="null" x="304" y="175" font-size="24" font-family="sans serif" text-anchor="middle" xml:space="preserve">Y</text>
  <text id="svg_34" fill="#000000" stroke="#000000" stroke-width="0" stroke-dasharray="null" stroke-linejoin="null" stroke-linecap="null" x="356" y="175" font-size="24" font-family="sans serif" text-anchor="middle" xml:space="preserve">Z</text>
  <text id="svg_35" fill="#000000" stroke="#000000" stroke-width="0" stroke-dasharray="null" stroke-linejoin="null" stroke-linecap="null" x="220" y="85" font-size="24" font-family="sans serif" text-anchor="middle" xml:space="preserve">branch main</text>
  <text id="svg_36" fill="#000000" stroke="#000000" stroke-width="0" stroke-dasharray="null" stroke-linejoin="null" stroke-linecap="null" x="430" y="134" font-size="24" font-family="sans serif" text-anchor="middle" xml:space="preserve">branch a3</text>
 </g>
</svg>
