<?xml version="1.0" encoding="utf-8"?>
<!-- Generator: Adobe Illustrator 19.2.1, SVG Export Plug-In . SVG Version: 6.00 Build 0)  -->
<svg version="1.1" xmlns="http://www.w3.org/2000/svg" xmlns:xlink="http://www.w3.org/1999/xlink" x="0px" y="0px"
	 viewBox="0 0 675 432" style="enable-background:new 0 0 675 432;" xml:space="preserve">
<style type="text/css">
	.st0{fill:#9E9B92;}
	.st1{fill:#BF9700;}
	.st2{fill:#FFFFFF;}
	.st3{fill:none;stroke:#000000;}
	.st4{font-family:'Arial';}
	.st5{font-size:10px;}
	.st7{fill:none;stroke:#1F6AFF;stroke-width:20;stroke-miterlimit:20;}
	.st8{fill:#1F6AFF;}
	.st9{font-family:'Arial';}
	.st10{font-size:12px;}
	.st11{font-family:'Arial';font-weight: bold;}
	.st12{font-size:14px;}
</style>
<symbol  id="key" viewBox="-62.9 -31.4 125.9 62.8">
	<g id="path3135_3_">
		<polygon class="st0" points="-62.9,-7.1 -62.9,7.1 24.8,7.1 24.8,-7.1 		"/>
	</g>
	<g id="path3137_3_">
		<polygon class="st0" points="-33.8,-3.4 -33.8,17.4 -27.6,17.4 -27.6,-3.4 		"/>
	</g>
	<g id="path3139_3_">
		<polygon class="st0" points="-48.8,4.6 -48.8,17.6 -39.6,17.6 -39.6,4.6 		"/>
	</g>
	<g id="path3141_3_">
		<polygon class="st0" points="-62.9,-1.9 -62.9,17.6 -54.1,17.6 -54.1,-1.9 		"/>
	</g>
	<g id="path3156_3_">
		<path class="st0" d="M22.4,0c0,17.6,8.9,31.4,20.3,31.4C54,31.4,62.9,17.6,62.9,0c0-17.6-8.9-31.4-20.3-31.4
			C31.3-31.4,22.4-17.6,22.4,0L22.4,0z M54.6,0c0,13.6-6.3,23-11.9,23C37,23,30.8,13.6,30.8,0c0-13.6,6.3-23,11.9-23
			C48.3-23,54.6-13.6,54.6,0L54.6,0z"/>
	</g>
</symbol>
<symbol  id="privatekey" viewBox="-62.9 -31.4 125.9 62.8">
	<g id="path3135_2_">
		<polygon class="st1" points="62.9,7.1 62.9,-7.1 -24.8,-7.1 -24.8,7.1 		"/>
	</g>
	<g id="path3137_2_">
		<polygon class="st1" points="33.8,3.4 33.8,-17 28.9,-17 28.9,3.4 		"/>
	</g>
	<g id="path3139_2_">
		<polygon class="st1" points="48.8,-0.6 48.8,-17 43.1,-17 43.1,-0.6 		"/>
	</g>
	<g id="path3141_2_">
		<polygon class="st1" points="62.9,1.9 62.9,-17.4 55.4,-17.4 55.4,1.9 		"/>
	</g>
	<g id="path3156_2_">
		<path class="st1" d="M-22.4,0c0-17.6-8.9-31.4-20.3-31.4C-54-31.4-62.9-17.6-62.9,0c0,17.6,8.9,31.4,20.3,31.4
			C-31.3,31.4-22.4,17.6-22.4,0L-22.4,0z M-54.6,0c0-13.6,6.3-23,11.9-23c5.6,0,11.9,9.5,11.9,23c0,13.6-6.3,23-11.9,23
			C-48.3,23-54.6,13.6-54.6,0L-54.6,0z"/>
	</g>
</symbol>
<g id="Ebene_2">
	<rect class="st2" width="675" height="432"/>
</g>
<g id="Ebene_1">
	<g id="Messages">
		<g id="plain_text">
			<rect x="523.8" y="68.4" class="st3" width="127" height="106.4"/>
		</g>
		<g id="cyphertext">
			<text transform="matrix(1 0 0 1 181.9204 303.7852)" class="st4 st5">Wzu??y?J`??xT~???I??1</text>
			<text transform="matrix(1 0 0 1 181.9204 315.7852)" class="st4 st5">+?o???Dq(&quot;-T^{q??~??</text>
			<text transform="matrix(1 0 0 1 181.9204 327.7852)" class="st4 st5">4??4,?*a?sĂ</text>
			<text transform="matrix(1 0 0 1 237.9297 327.7852)" class="st4 st5">QU??xaV?</text>
			<text transform="matrix(1 0 0 1 181.9204 339.7852)" class="st4 st5">???QK,???l?&lt;?D?pc*b? </text>
			<text transform="matrix(1 0 0 1 181.9204 351.7852)" class="st4 st5">?U?:/?</text>
			<text transform="matrix(1 0 0 1 212.2207 351.7852)" class="st4 st5">?x?z\tq??q?,t?w</text>
			<text transform="matrix(1 0 0 1 181.9204 363.7852)" class="st4 st5">??&quot;!??1\,V??n?p?w&lt;???</text>
			<text transform="matrix(1 0 0 1 181.9204 375.7852)" class="st4 st5">y?d0?\?5lw:?&quot;?w?</text>
			<rect x="174.9" y="286.8" class="st3" width="127" height="106.4"/>
		</g>
		<g>
			<g>
				<path class="st7" d="M153.5,121.6c45.4,0,74.3,45.1,75.8,115"/>
				<polygon class="st8" points="230.2,279 204.6,219.8 229.3,233.5 253.3,218.8 				"/>
			</g>
		</g>
		<text transform="matrix(1 0 0 1 532.209 85.3701)" class="st4 st5">Hallo Alice!</text>
		<text transform="matrix(1 0 0 1 532.209 97.3701)" class="st4 st5">ich wollte Dir Dein</text>
		<text transform="matrix(1 0 0 1 532.209 109.3701)" class="st4 st5">Handy vorbei bringen,</text>
		<text transform="matrix(1 0 0 1 532.209 121.3701)" class="st4 st5">aber Du warst nicht da.</text>
		<text transform="matrix(1 0 0 1 532.209 133.3701)" class="st4 st5">Ich hab es  auf Deinem</text>
		<text transform="matrix(1 0 0 1 532.209 145.3701)" class="st4 st5">Schreibtisch hinterlegt</text>
		<text transform="matrix(1 0 0 1 532.209 157.3701)" class="st4 st5">und zwar unter dem</text>
	</g>
	<g id="Ebene_4">
		<g id="plain_text_1_">
			<text transform="matrix(1 0 0 1 31.209 75.3701)" class="st4 st5">Hallo Alice!</text>
			<text transform="matrix(1 0 0 1 31.209 87.3701)" class="st4 st5">ich wollte Dir Dein</text>
			<text transform="matrix(1 0 0 1 31.209 99.3701)" class="st4 st5">Handy vorbei bringen,</text>
			<text transform="matrix(1 0 0 1 31.209 111.3701)" class="st4 st5">aber Du warst nicht da.</text>
			<text transform="matrix(1 0 0 1 31.209 123.3701)" class="st4 st5">Ich hab es  auf Deinem</text>
			<text transform="matrix(1 0 0 1 31.209 135.3701)" class="st4 st5">Schreibtisch hinterlegt</text>
			<text transform="matrix(1 0 0 1 31.209 147.3701)" class="st4 st5">und zwar unter dem</text>
			<rect x="24.2" y="58.7" class="st3" width="127" height="106.4"/>
		</g>
		<g id="cyphertext_1_">
			<rect x="342.3" y="286.8" class="st3" width="127" height="106.4"/>
		</g>
		<g>
			<g>
				<path class="st7" d="M475.8,125c-46.4,0-70.6,68.2-70.6,155.8"/>
				<polygon class="st8" points="518.2,125 458.5,149.4 472.6,125 458.5,100.6 				"/>
			</g>
		</g>
		<text transform="matrix(1 0 0 1 351.9209 304.7852)" class="st4 st5">Wzu??y?J`??xT~???I??1</text>
		<text transform="matrix(1 0 0 1 351.9209 316.7852)" class="st4 st5">+?o???Dq(&quot;-T^{q??~??</text>
		<text transform="matrix(1 0 0 1 351.9209 328.7852)" class="st4 st5">4??4,?*a?sĂ</text>
		<text transform="matrix(1 0 0 1 407.9287 328.7852)" class="st4 st5">QU??xaV?</text>
		<text transform="matrix(1 0 0 1 351.9209 340.7852)" class="st4 st5">???QK,???l?&lt;?D?pc*b? </text>
		<text transform="matrix(1 0 0 1 351.9209 352.7852)" class="st4 st5">?U?:/?</text>
		<text transform="matrix(1 0 0 1 382.2197 352.7852)" class="st4 st5">?x?z\tq??q?,t?w</text>
		<text transform="matrix(1 0 0 1 351.9209 364.7852)" class="st4 st5">??&quot;!??1\,V??n?p?w&lt;???</text>
		<text transform="matrix(1 0 0 1 351.9209 376.7852)" class="st4 st5">y?d0?\?5lw:?&quot;?w?</text>
	</g>
	<g id="private_1_" transform="translate(-578.79754,-93.055208)">
		
			<use xlink:href="#privatekey"  width="125.9" height="62.8" x="-62.9" y="-31.4" transform="matrix(1 0 0 -1 1005.6627 272.1729)" style="overflow:visible;"/>
		<text transform="matrix(1 0 0 1 1012.1891 275.8706)" class="st9 st10">private key</text>
	</g>
	<g id="public_1_" transform="translate(-578.79754,-93.055208)">
		
			<use xlink:href="#key"  width="125.9" height="62.8" x="-62.9" y="-31.4" transform="matrix(1 0 0 -1 804.1437 272.1724)" style="overflow:visible;"/>
		<text transform="matrix(1 0 0 1 742.7131 292.3824)" class="st9 st10">public key</text>
	</g>
	<text transform="matrix(1 0 0 1 24.209 22.8184)" class="st11 st12">Encrypt </text>
	<text transform="matrix(1 0 0 1 79.8921 22.8184)" class="st9 st12">a message to Alice</text>
	<text transform="matrix(1 0 0 1 24.209 39.6182)" class="st9 st12">with Alices </text>
	<text transform="matrix(1 0 0 1 97.0259 39.6182)" class="st11 st12">public key</text>
	<text transform="matrix(1 0 0 1 469.9209 25.8398)" class="st11 st12">Decrypt</text>
	<text transform="matrix(1 0 0 1 526.9971 25.8398)" class="st9 st12">a message to Alice</text>
	<text transform="matrix(1 0 0 1 469.9209 42.6396)" class="st9 st12">with Alices</text>
	<text transform="matrix(1 0 0 1 541.7368 42.6396)" class="st11 st12">private key</text>
	<g id="Ebene_3">
	</g>
</g>
</svg>
