<?xml version="1.0" encoding="utf-8"?>
<!-- Generator: Adobe Illustrator 14.0.0, SVG Export Plug-In . SVG Version: 6.00 Build 43363)  -->
<!DOCTYPE svg PUBLIC "-//W3C//DTD SVG 1.1//EN" "http://www.w3.org/Graphics/SVG/1.1/DTD/svg11.dtd">
<svg version="1.1" id="Ebene_1" xmlns="http://www.w3.org/2000/svg" xmlns:xlink="http://www.w3.org/1999/xlink" x="0px" y="0px"
	 width="900.941px" height="843.56px" viewBox="0 0 900.941 843.56" enable-background="new 0 0 900.941 843.56"
	 xml:space="preserve">
<image overflow="visible" width="1106" height="952" xlink:href="/images/scaffold.png"  transform="matrix(0.8119 0 0 0.8119 0 54.127)">
</image>
<text transform="matrix(1 0 0 1 11.7422 31.6548)" font-family="'LucidaGrande-Bold'" font-size="25.1431">Webpages generated by the scaffold</text>
<g>
	<g>
		<line fill="none" stroke="#FF681F" stroke-width="2" x1="70.014" y1="521.609" x2="295.185" y2="231.307"/>
		<path fill="#FF681F" d="M302.582,221.77c-1.815,5.779-3.293,13.552-2.962,19.335l-5.406-8.546l-9.622-3.11
			C290.276,228.33,297.437,224.966,302.582,221.77z"/>
	</g>
</g>
<g>
	<g>
		<line fill="none" stroke="#FF681F" stroke-width="2" x1="383.24" y1="248.528" x2="586.334" y2="248.528"/>
		<path fill="#FF681F" d="M598.404,248.528c-5.68,2.107-12.727,5.703-17.094,9.51l3.439-9.51l-3.439-9.51
			C585.678,242.825,592.725,246.422,598.404,248.528z"/>
	</g>
</g>
<g>
	<g>
		<line fill="none" stroke="#FF681F" stroke-width="2" x1="264.318" y1="452.72" x2="389.188" y2="612.892"/>
		<path fill="#FF681F" d="M396.609,622.411c-5.153-3.184-12.322-6.53-18.01-7.635l9.615-3.134l5.385-8.56
			C393.283,608.867,394.779,616.637,396.609,622.411z"/>
	</g>
</g>
<g>
	<g>
		<line fill="none" stroke="#FF681F" stroke-width="2" x1="612.602" y1="186.511" x2="504.998" y2="326.842"/>
		<path fill="#FF681F" d="M497.653,336.42c1.784-5.789,3.219-13.569,2.854-19.352l5.454,8.517l9.64,3.057
			C509.923,329.791,502.781,333.195,497.653,336.42z"/>
	</g>
</g>
<g>
	<g>
		<line fill="none" stroke="#FF681F" stroke-width="2" x1="378.119" y1="492.083" x2="581.213" y2="492.083"/>
		<path fill="#FF681F" d="M593.283,492.083c-5.68,2.107-12.727,5.703-17.094,9.51l3.439-9.51l-3.439-9.51
			C580.557,486.38,587.604,489.977,593.283,492.083z"/>
	</g>
</g>
<g>
	<g>
		<path fill="none" stroke="#FF681F" stroke-width="2" d="M229.99,429.349c1.23-52.895,14.761-64.045,59.045-62.814"/>
		<path fill="#FF681F" d="M301.101,366.869c-5.735,1.949-12.88,5.348-17.351,9.031l3.702-9.41l-3.175-9.602
			C288.537,360.815,295.481,364.606,301.101,366.869z"/>
	</g>
</g>
<g>
	<g>
		<path fill="none" stroke="#FF681F" stroke-width="2" d="M618.307,431.557c0.703,18.104-1.229,31.597-23.372,31.552"/>
		<path fill="#FF681F" d="M582.864,463.084c5.684-2.096,12.738-5.678,17.113-9.476l-3.459,9.503l3.42,9.517
			C595.579,468.812,588.54,465.202,582.864,463.084z"/>
	</g>
</g>
</svg>
