<svg xmlns="http://www.w3.org/2000/svg" viewBox="0 0 640 311.36"><defs><style>.cls-1{fill:#fff;}.cls-1,.cls-13{stroke:#000;}.cls-1,.cls-11,.cls-13,.cls-16,.cls-9{stroke-miterlimit:10;}.cls-19,.cls-2,.cls-5{font-size:18px;}.cls-12,.cls-2{fill:#fc625d;}.cls-14,.cls-15,.cls-19,.cls-2,.cls-5{font-family:MyriadPro-Regular, Myriad Pro;}.cls-3{letter-spacing:0em;}.cls-4{letter-spacing:0.01em;}.cls-10,.cls-5{fill:#fdc141;}.cls-6{letter-spacing:0.01em;}.cls-7{letter-spacing:0.02em;}.cls-8{letter-spacing:0.01em;}.cls-11,.cls-16,.cls-9{fill:none;stroke-width:13px;}.cls-9{stroke:#fdc141;}.cls-11{stroke:#fc625d;}.cls-13{fill:#cecece;}.cls-14{font-size:9px;}.cls-15{font-size:22.78px;}.cls-16{stroke:#34c84a;}.cls-17,.cls-19{fill:#34c84a;}.cls-18{letter-spacing:0.02em;}.cls-20{letter-spacing:-0.01em;}</style></defs><title>vi-modes</title><g id="Norma"><circle class="cls-1" cx="138.77" cy="225.67" r="74.43"/><text class="cls-2" transform="translate(87.01 225.67)">No<tspan class="cls-3" x="21.73" y="0">r</tspan><tspan x="27.68" y="0">mal </tspan><tspan class="cls-4" x="59.44" y="0">M</tspan><tspan x="74.02" y="0">ode</tspan></text></g><g id="Insert"><circle class="cls-1" cx="319.52" cy="80.38" r="72.41"/><text class="cls-5" transform="translate(273.7 85.15)"><tspan class="cls-6">I</tspan><tspan x="4.48" y="0">nse</tspan><tspan class="cls-7" x="30.62" y="0">r</tspan><tspan x="36.94" y="0">t </tspan><tspan class="cls-8" x="46.71" y="0">M</tspan><tspan x="61.29" y="0">ode</tspan></text></g><g id="Pfeile"><path class="cls-9" d="M128.83,144.42a101.41,101.41,0,0,1,81.92-99.58"/><path class="cls-10" d="M230.28,43c-8.82,4.37-19.59,11.39-26,18.29l3.94-16L201,30.52C208.74,35.93,220.74,40.54,230.28,43Z"/><path class="cls-11" d="M161.48,126A71.85,71.85,0,0,1,230.7,73.55"/><path class="cls-12" d="M158.83,145.42c4.75-8.62,12.22-19.08,19.39-25.19l-16.11,3.25-14.46-7.81C152.72,123.6,156.81,135.79,158.83,145.42Z"/><rect class="cls-13" x="180.14" y="72.38" width="29.25" height="29.25" rx="12" ry="12"/><text class="cls-14" transform="translate(188.33 90)">ESC</text><rect class="cls-13" x="137.01" y="57.16" width="30.43" height="30.43" rx="12" ry="12"/><text class="cls-15" transform="translate(149.91 78.22)">i</text><rect class="cls-13" x="113.61" y="86.41" width="30.43" height="30.43" rx="12" ry="12"/><text class="cls-15" transform="translate(121.51 109.46)">A</text><line class="cls-16" x1="225.04" y1="203.17" x2="395.6" y2="202.12"/><path class="cls-17" d="M415.21,202c-9.21,3.48-20.62,9.39-27.68,15.63l5.5-15.49-5.69-15.42C394.47,192.86,406,198.64,415.21,202Z"/><line class="cls-11" x1="414.38" y1="236.01" x2="247.03" y2="238.09"/><path class="cls-12" d="M227.41,238.34c9.19-3.54,20.56-9.52,27.58-15.8l-5.4,15.52,5.78,15.38C248.21,247.34,236.68,241.64,227.41,238.34Z"/><rect class="cls-13" x="305.78" y="187.96" width="30.43" height="30.43" rx="12" ry="12"/><text class="cls-15" transform="translate(318.68 209.01)">:</text><rect class="cls-13" x="307.93" y="225.93" width="36.3" height="36.3" rx="12" ry="12"/><text class="cls-14" transform="translate(311.44 247.08)">R<tspan class="cls-18" x="4.84" y="0">E</tspan><tspan x="9.41" y="0">TURN</tspan></text><rect class="cls-13" x="351.37" y="226.62" width="29.25" height="29.25" rx="12" ry="12"/><text class="cls-14" transform="translate(359.56 244.24)">ESC</text></g><g id="Command"><circle class="cls-1" cx="504.82" cy="225" r="74.8"/><text class="cls-19" transform="translate(446.11 221)"><tspan class="cls-20">C</tspan><tspan x="10.24" y="0">ommand-Line </tspan><tspan class="cls-8" x="38.2" y="21.6">M</tspan><tspan x="52.77" y="21.6">ode</tspan></text></g></svg>