<svg xmlns="http://www.w3.org/2000/svg" xmlns:xlink="http://www.w3.org/1999/xlink" viewBox="0 0 663.45 316"><defs><style>.cls-1,.cls-18,.cls-4{font-size:18px;}.cls-1,.cls-11{fill:#fc625d;}.cls-1,.cls-13,.cls-14,.cls-18,.cls-4{font-family:MyriadPro-Regular, Myriad Pro;}.cls-2{letter-spacing:0em;}.cls-3{letter-spacing:0.01em;}.cls-4,.cls-9{fill:#fdc141;}.cls-5{letter-spacing:0.01em;}.cls-6{letter-spacing:0.02em;}.cls-7{letter-spacing:0.01em;}.cls-10,.cls-15,.cls-8{fill:none;stroke-width:13px;}.cls-8{stroke:#fdc141;}.cls-10,.cls-12,.cls-15,.cls-8{stroke-miterlimit:10;}.cls-10{stroke:#fc625d;}.cls-12{fill:#cecece;stroke:#000;}.cls-13{font-size:9px;}.cls-14{font-size:22.78px;}.cls-15{stroke:#34c84a;}.cls-16,.cls-18{fill:#34c84a;}.cls-17{letter-spacing:0.02em;}.cls-19{letter-spacing:-0.01em;}.cls-20{letter-spacing:0em;}</style></defs><title>vi-recognize-modes</title><g id="Norma"><image width="738" height="489" transform="translate(0 122.68) scale(0.42 0.4)" xlink:href="vi-normal-mode.png"/><text class="cls-1" transform="translate(79.27 233.67)">No<tspan class="cls-2" x="21.73" y="0">r</tspan><tspan x="27.68" y="0">mal </tspan><tspan class="cls-3" x="59.44" y="0">M</tspan><tspan x="74.02" y="0">ode</tspan></text></g><g id="Insert"><image width="738" height="489" transform="translate(188.34) scale(0.41 0.38)" xlink:href="vi-insert-mode.png"/><text class="cls-4" transform="translate(267.95 105.15)"><tspan class="cls-5">I</tspan><tspan x="4.48" y="0">nse</tspan><tspan class="cls-6" x="30.62" y="0">r</tspan><tspan x="36.94" y="0">t </tspan><tspan class="cls-7" x="46.71" y="0">M</tspan><tspan x="61.29" y="0">ode</tspan></text><text x="11.25"></text></g><g id="Pfeile"><path class="cls-8" d="M79.83,129.42a101.41,101.41,0,0,1,81.92-99.58" transform="translate(11.25)"/><path class="cls-9" d="M181.28,28c-8.82,4.37-19.59,11.39-26,18.29l3.94-16L152,15.52C159.74,20.93,171.74,25.54,181.28,28Z" transform="translate(11.25)"/><path class="cls-10" d="M112.48,111A71.85,71.85,0,0,1,181.7,58.55" transform="translate(11.25)"/><path class="cls-11" d="M109.83,130.42c4.75-8.62,12.22-19.08,19.39-25.19l-16.11,3.25-14.46-7.81C103.72,108.6,107.81,120.79,109.83,130.42Z" transform="translate(11.25)"/><rect class="cls-12" x="142.39" y="57.38" width="29.25" height="29.25" rx="12" ry="12"/><text class="cls-13" transform="translate(150.58 75)">ESC</text><rect class="cls-12" x="99.27" y="42.16" width="30.43" height="30.43" rx="12" ry="12"/><text class="cls-14" transform="translate(112.16 63.22)">i</text><rect class="cls-12" x="75.86" y="71.41" width="30.43" height="30.43" rx="12" ry="12"/><text class="cls-14" transform="translate(83.76 94.46)">A</text><text x="11.25"></text><line class="cls-15" x1="259.49" y1="203.84" x2="356.54" y2="202.63"/><path class="cls-16" d="M364.9,202.39c-9.19,3.54-20.56,9.52-27.58,15.8l5.4-15.52-5.78-15.38C344.1,193.38,355.63,199.08,364.9,202.39Z" transform="translate(11.25)"/><line class="cls-10" x1="376.15" y1="236.39" x2="279.1" y2="237.6"/><path class="cls-11" d="M248.23,237.84c9.19-3.54,20.56-9.52,27.58-15.8l-5.4,15.52,5.78,15.38C269,246.85,257.5,241.15,248.23,237.84Z" transform="translate(11.25)"/><rect class="cls-12" x="298.04" y="187.96" width="30.43" height="30.43" rx="12" ry="12"/><text class="cls-14" transform="translate(310.93 209.01)">:</text><rect class="cls-12" x="300.18" y="225.93" width="36.3" height="36.3" rx="12" ry="12"/><text class="cls-13" transform="translate(303.7 247.08)">R<tspan class="cls-17" x="4.84" y="0">E</tspan><tspan x="9.41" y="0">TURN</tspan></text><rect class="cls-12" x="343.63" y="226.62" width="29.25" height="29.25" rx="12" ry="12"/><text class="cls-13" transform="translate(351.81 244.24)">ESC</text></g><g id="Command"><image width="738" height="489" transform="translate(364.65 116.84) scale(0.4)" xlink:href="vi-command-line-mode.png"/><text class="cls-18" transform="translate(424.49 235.6)"><tspan class="cls-19">C</tspan><tspan x="10.24" y="0">ommand-Line </tspan><tspan class="cls-7" x="120.02" y="0">M</tspan><tspan class="cls-20" x="134.6" y="0">ode</tspan></text></g></svg>
