<?xml version="1.0" encoding="utf-8"?>
<!-- Generator: Adobe Illustrator 22.0.1, SVG Export Plug-In . SVG Version: 6.00 Build 0)  -->
<svg version="1.1" id="Ebene_1" xmlns="http://www.w3.org/2000/svg" xmlns:xlink="http://www.w3.org/1999/xlink" x="0px" y="0px"
	 viewBox="0 0 900 669.1" style="enable-background:new 0 0 900 669.1;" xml:space="preserve">
<style type="text/css">
	.st0{fill:#92ACFC;stroke:#000000;}
	.st1{opacity:0.4021;fill:url(#rect6709_3_);enable-background:new    ;}
	.st2{opacity:0.4021;fill:url(#path6711_3_);enable-background:new    ;}
	.st3{opacity:0.4021;fill:url(#path6713_3_);enable-background:new    ;}
	.st4{fill:#9B9A9A;stroke:#000000;stroke-linecap:round;stroke-linejoin:round;}
	.st5{fill:#FCA342;stroke:#CE5C00;stroke-linejoin:round;}
	.st6{fill:#FFFFFF;fill-opacity:8.930000e-02;}
	.st7{opacity:0.4021;fill:url(#rect6709_4_);enable-background:new    ;}
	.st8{opacity:0.4021;fill:url(#path6711_4_);enable-background:new    ;}
	.st9{opacity:0.4021;fill:url(#path6713_4_);enable-background:new    ;}
	.st10{fill:#7FA1FF;stroke:#4410FF;stroke-linejoin:round;}
	.st11{fill:none;stroke:#EF6060;stroke-width:2;}
	.st12{fill:#DE22FF;stroke:#000000;}
	.st13{fill:#FFFFFF;stroke:#000000;}
	.st14{font-family:'ArialMT';}
	.st15{font-size:24px;}
	.st16{fill:none;stroke:#F99532;stroke-width:2;}
	.st17{fill:#F99532;}
	.st18{font-size:36px;}
	.st19{fill:#FFC65F;stroke:#BC5E08;}
</style>
<symbol  id="File" viewBox="-14.8 -17.5 29.6 35">
	<g>
		<polygon class="st0" points="-14.3,17 14.3,17 14.3,-17 -14.3,-17 		"/>
	</g>
</symbol>
<symbol  id="Folder" viewBox="-23 -19.1 45.9 38.2">
	<g id="g2642_1_" transform="translate(-342.85714,-542.94643)">
		<g id="shadow_1_" transform="matrix(2.262383e-2,0,0,2.086758e-2,387.2653,580.34254)">
			
				<linearGradient id="rect6709_3_" gradientUnits="userSpaceOnUse" x1="-1339.177" y1="-2518.1685" x2="-1339.177" y2="-2487.8625" gradientTransform="matrix(7.165727e-07 0 0 -3.919103e-07 1366315.875 -1615171.875)">
				<stop  offset="0" style="stop-color:#000000;stop-opacity:0"/>
				<stop  offset="0.5" style="stop-color:#000000"/>
				<stop  offset="1" style="stop-color:#000000;stop-opacity:0"/>
			</linearGradient>
			<polygon id="rect6709_1_" class="st1" points="-2632.7,-2229.1 -1293.1,-2229.1 -1293.1,-2707.4 -2632.7,-2707.4 			"/>
			
				<radialGradient id="path6711_3_" cx="-1120.3994" cy="-2468.2178" r="4.4816" gradientTransform="matrix(7.165727e-07 0 0 -3.919103e-07 1366316.5 -1615171.875)" gradientUnits="userSpaceOnUse">
				<stop  offset="0" style="stop-color:#000000"/>
				<stop  offset="1" style="stop-color:#000000;stop-opacity:0"/>
			</radialGradient>
			<path id="path6711_1_" class="st2" d="M-1293.1-2229.1v-478.3c142.9-0.8,345.4,107.2,345.4,239.1
				C-947.7-2336.2-1107.1-2229.1-1293.1-2229.1z"/>
			
				<radialGradient id="path6713_3_" cx="-2805.3557" cy="-2468.2178" r="4.4816" gradientTransform="matrix(-7.165727e-07 0 0 -3.919103e-07 1412018.25 -1615171.875)" gradientUnits="userSpaceOnUse">
				<stop  offset="0" style="stop-color:#000000"/>
				<stop  offset="1" style="stop-color:#000000;stop-opacity:0"/>
			</radialGradient>
			<path id="path6713_1_" class="st3" d="M-2632.7-2229.1v-478.3c-142.9-0.8-345.4,107.2-345.4,239.1
				C-2978.1-2336.2-2818.7-2229.1-2632.7-2229.1z"/>
		</g>
		<path id="back_1_" class="st4" d="M324.1,528.4c0-0.4,0.5-0.8,0.9-0.8h31.4c0.4,0,0.8,0.4,0.8,0.8l-0.9,27.3
			c0,0.4-0.5,0.8-0.9,0.8H342c-0.5,0-1.2,0.3-1.4,1.1l-0.6,2.9c-0.2,0.7-0.9,1-1.3,1h-14.8c-0.4,0-0.8-0.4-0.8-0.8L324.1,528.4z"/>
		<g id="front_1_">
			<path id="orange_1_" class="st5" d="M359.4,527.6c1.1,0,2,1.1,2,2.3c0.8,11.5,1.6,21.2,1.6,21.2c0.1,0.2-0.2,0.5-0.5,0.5h-34.1
				l-1.8-21.8c-0.1-1-0.5-1.8-1.5-2.2L359.4,527.6z"/>
			<path id="path323_1_" class="st6" d="M329.4,550.8l-1.2-15.6c0,0,8.2,4.1,18.5,4.1s15.4,11.5,15.4,11.5L329.4,550.8L329.4,550.8z
				"/>
		</g>
	</g>
</symbol>
<symbol  id="Folder_1" viewBox="-23 -19.1 45.9 38.2">
	<g id="g2642_2_" transform="translate(-342.85714,-542.94643)">
		<g id="shadow_2_" transform="matrix(2.262383e-2,0,0,2.086758e-2,387.2653,580.34254)">
			
				<linearGradient id="rect6709_4_" gradientUnits="userSpaceOnUse" x1="-1339.177" y1="-903757.6875" x2="-1339.177" y2="-903727.375" gradientTransform="matrix(7.165727e-07 0 0 -3.919103e-07 1366315.875 -1615171.875)">
				<stop  offset="0" style="stop-color:#000000;stop-opacity:0"/>
				<stop  offset="0.5" style="stop-color:#000000"/>
				<stop  offset="1" style="stop-color:#000000;stop-opacity:0"/>
			</linearGradient>
			<polygon id="rect6709_2_" class="st7" points="-2632.7,-2229.1 -1293.1,-2229.1 -1293.1,-2707.4 -2632.7,-2707.4 			"/>
			
				<radialGradient id="path6711_4_" cx="-51483.0391" cy="-120071.2422" r="4.4816" gradientTransform="matrix(7.165727e-07 0 0 -3.919103e-07 1366316.5 -1615171.875)" gradientUnits="userSpaceOnUse">
				<stop  offset="0" style="stop-color:#000000"/>
				<stop  offset="1" style="stop-color:#000000;stop-opacity:0"/>
			</radialGradient>
			<path id="path6711_2_" class="st8" d="M-1293.1-2229.1v-478.3c142.9-0.8,345.4,107.2,345.4,239.1
				C-947.7-2336.2-1107.2-2229.1-1293.1-2229.1z"/>
			
				<radialGradient id="path6713_4_" cx="-125962.8516" cy="-120071.2422" r="4.4816" gradientTransform="matrix(-7.165727e-07 0 0 -3.919103e-07 1412018.25 -1615171.875)" gradientUnits="userSpaceOnUse">
				<stop  offset="0" style="stop-color:#000000"/>
				<stop  offset="1" style="stop-color:#000000;stop-opacity:0"/>
			</radialGradient>
			<path id="path6713_2_" class="st9" d="M-2632.7-2229.1v-478.3c-142.9-0.8-345.4,107.2-345.4,239.1
				C-2978.1-2336.2-2818.7-2229.1-2632.7-2229.1z"/>
		</g>
		<path id="back_2_" class="st4" d="M324.1,528.4c0-0.4,0.5-0.8,0.9-0.8h31.4c0.4,0,0.8,0.4,0.8,0.8l-0.9,27.3
			c0,0.4-0.5,0.8-0.9,0.8H342c-0.5,0-1.2,0.3-1.4,1.1l-0.6,2.9c-0.2,0.7-0.9,1-1.3,1h-14.8c-0.4,0-0.8-0.4-0.8-0.8L324.1,528.4z"/>
		<g id="front_2_">
			<path id="orange_2_" class="st10" d="M359.4,527.6c1.1,0,1.9,1.1,2,2.3c0.8,11.5,1.6,21.2,1.6,21.2c0.1,0.2-0.2,0.5-0.5,0.5
				h-34.1l-1.8-21.8c-0.1-1-0.5-1.8-1.5-2.2L359.4,527.6z"/>
			<path id="path323_4_" class="st6" d="M329.4,550.8l-1.2-15.6c0,0,8.2,4.1,18.5,4.1c10.3,0,15.4,11.5,15.4,11.5L329.4,550.8
				L329.4,550.8z"/>
		</g>
	</g>
</symbol>
<symbol  id="Klammer" viewBox="-9.9 -64 19.8 128">
	<path class="st11" d="M-9.9,63C11.9,63-11.6,0,9.9,0 M-9.9-63C11.9-63-11.6,0,9.9,0"/>
</symbol>
<symbol  id="Pfeil" viewBox="-20.4 -18.2 40.8 36.5">
	<polygon class="st12" points="19.7,-0.8 3,17 2.9,14.7 3,8.5 -19.9,8.6 -19.9,-9.6 3,-9.5 3,-17 	"/>
</symbol>
<g id="Ebene_2_6_">
	<rect class="st13" width="900" height="669.1"/>
</g>
<g>
	<g id="Ebene_2">
		
			<use xlink:href="#Folder"  width="45.9" height="38.2" x="-23" y="-19.1" transform="matrix(1 0 0 -1 42.9727 133.5337)" style="overflow:visible;"/>
	</g>
	<text transform="matrix(1 0 0 1 70.0039 142.4321)" class="st14 st15">assets</text>
</g>
<g>
	<g id="Ebene_2_1_">
		
			<use xlink:href="#Folder"  width="45.9" height="38.2" x="-23" y="-19.1" transform="matrix(1 0 0 -1 86.8784 186.5337)" style="overflow:visible;"/>
	</g>
	<text transform="matrix(1 0 0 1 113.9097 195.4321)" class="st14 st15">images</text>
</g>
<g>
	<g id="Ebene_2_2_">
		
			<use xlink:href="#Folder"  width="45.9" height="38.2" x="-23" y="-19.1" transform="matrix(1 0 0 -1 84.8472 299.0332)" style="overflow:visible;"/>
	</g>
	<text transform="matrix(1 0 0 1 111.8784 307.9321)" class="st14 st15">javascripts</text>
</g>
<g>
	<g id="Ebene_2_3_">
		
			<use xlink:href="#Folder"  width="45.9" height="38.2" x="-23" y="-19.1" transform="matrix(1 0 0 -1 81.6851 476.981)" style="overflow:visible;"/>
	</g>
	<text transform="matrix(1 0 0 1 108.7163 485.8794)" class="st14 st15">stylesheets</text>
</g>
<g>
	<g>
		<path class="st16" d="M229.6,239.4c176.1-2.2,138.3-41.8,295.8-40.6"/>
		<path class="st17" d="M537.5,198.8c-5.7,2.1-12.7,5.7-17.1,9.5l3.4-9.5l-3.4-9.5C524.8,193.1,531.8,196.6,537.5,198.8z"/>
	</g>
</g>
<text transform="matrix(1 0 0 1 36.5029 59.5503)" class="st14 st18">Webpacker in Rails</text>
<g>
	<rect x="104.4" y="221" class="st19" width="28.6" height="34"/>
	<text transform="matrix(1 0 0 1 140.4819 246.4321)" class="st14 st15">rails.png</text>
</g>
<g>
	<rect x="104.4" y="334.8" class="st19" width="28.6" height="34"/>
	<text transform="matrix(1 0 0 1 140.4814 360.1821)" class="st14 st15">application.js</text>
</g>
<g>
	<rect x="104.4" y="514" class="st19" width="28.6" height="34"/>
	<text transform="matrix(1 0 0 1 140.4814 539.3794)" class="st14 st15">application.css</text>
</g>
<g>
	<rect x="104.4" y="560" class="st19" width="28.6" height="34"/>
	<text transform="matrix(1 0 0 1 140.4814 585.4126)" class="st14 st15">main.css.sass</text>
</g>
<g>
	<rect x="104.4" y="378.8" class="st19" width="28.6" height="34"/>
	<text transform="matrix(1 0 0 1 140.4814 404.1821)" class="st14 st15">main.js.coffee</text>
</g>
<g>
	<rect x="104.4" y="604" class="st19" width="28.6" height="34"/>
	<text transform="matrix(1 0 0 1 140.4819 629.4126)" class="st14 st15">x.css.sass.erb</text>
</g>
<g>
	<g id="Ebene_2_4_">
		
			<use xlink:href="#Folder_1"  width="45.9" height="38.2" x="-23" y="-19.1" transform="matrix(1 0 0 -1 465.4917 78.6533)" style="overflow:visible;"/>
	</g>
	<text transform="matrix(1 0 0 1 492.5234 87.5513)" class="st14 st15">public</text>
</g>
<g>
	<g id="Ebene_2_5_">
		
			<use xlink:href="#Folder_1"  width="45.9" height="38.2" x="-23" y="-19.1" transform="matrix(1 0 0 -1 500.4917 133.5078)" style="overflow:visible;"/>
	</g>
	<text transform="matrix(1 0 0 1 527.5234 142.4067)" class="st14 st15">assets</text>
</g>
<g>
	
		<use xlink:href="#File"  width="29.6" height="35" x="-14.8" y="-17.5" transform="matrix(1 0 0 -1 561.9912 197.5508)" style="overflow:visible;"/>
	<text transform="matrix(1 0 0 1 583.7676 205.9438)" class="st14 st15">rails.png</text>
</g>
<g>
	<text transform="matrix(1 0 0 1 583.7676 245.5522)" class="st14 st15">rails-be8732da.png</text>
	
		<use xlink:href="#File"  width="29.6" height="35" x="-14.8" y="-17.5" transform="matrix(1 0 0 -1 561.9912 237.3882)" style="overflow:visible;"/>
</g>
<g>
	<text transform="matrix(1 0 0 1 583.7676 320.479)" class="st14 st15">application.js</text>
	
		<use xlink:href="#File"  width="29.6" height="35" x="-14.8" y="-17.5" transform="matrix(1 0 0 -1 560.9912 312.4351)" style="overflow:visible;"/>
</g>
<g>
	<text transform="matrix(1 0 0 1 583.7676 397.2104)" class="st14 st15">application-3374f2a8.js</text>
	
		<use xlink:href="#File"  width="29.6" height="35" x="-14.8" y="-17.5" transform="matrix(1 0 0 -1 561.8789 388.1987)" style="overflow:visible;"/>
</g>
<g>
	<text transform="matrix(1 0 0 1 583.7676 435.5747)" class="st14 st15">application-3374f2a8.js.gz</text>
	
		<use xlink:href="#File"  width="29.6" height="35" x="-14.8" y="-17.5" transform="matrix(1 0 0 -1 561.8789 427.4341)" style="overflow:visible;"/>
</g>
<g>
	<text transform="matrix(1 0 0 1 583.7676 358.8442)" class="st14 st15">application.js.gz</text>
	
		<use xlink:href="#File"  width="29.6" height="35" x="-14.8" y="-17.5" transform="matrix(1 0 0 -1 561.9912 350.4517)" style="overflow:visible;"/>
</g>
<g>
	<text transform="matrix(1 0 0 1 583.7676 491.1851)" class="st14 st15">application.css</text>
	
		<use xlink:href="#File"  width="29.6" height="35" x="-14.8" y="-17.5" transform="matrix(1 0 0 -1 561.8789 483.1226)" style="overflow:visible;"/>
</g>
<g>
	<text transform="matrix(1 0 0 1 583.7676 530.1733)" class="st14 st15">application.css.gz</text>
	
		<use xlink:href="#File"  width="29.6" height="35" x="-14.8" y="-17.5" transform="matrix(1 0 0 -1 562.5117 522.3589)" style="overflow:visible;"/>
</g>
<g>
	<text transform="matrix(1 0 0 1 583.7676 569.1626)" class="st14 st15">application-3c9de844.css</text>
	
		<use xlink:href="#File"  width="29.6" height="35" x="-14.8" y="-17.5" transform="matrix(1 0 0 -1 561.8789 561.5942)" style="overflow:visible;"/>
</g>
<g>
	<text transform="matrix(1 0 0 1 583.7676 608.1509)" class="st14 st15">application-3c9de844.css.gz</text>
	
		<use xlink:href="#File"  width="29.6" height="35" x="-14.8" y="-17.5" transform="matrix(1 0 0 -1 561.8789 600.1968)" style="overflow:visible;"/>
</g>
<g>
	
		<use xlink:href="#Pfeil"  width="40.8" height="36.5" x="-20.4" y="-18.2" transform="matrix(1 0 0 -1 306.291 397.1225)" style="overflow:visible;"/>
	<text transform="matrix(1 0 0 1 328.2314 404.4321)" class="st14 st15">.js</text>
</g>
<g>
	<text transform="matrix(1 0 0 1 319.0518 584.2817)" class="st14 st15">.css</text>
	
		<use xlink:href="#Pfeil"  width="40.8" height="36.5" x="-20.4" y="-18.2" transform="matrix(1 0 0 -1 297.4971 577.0464)" style="overflow:visible;"/>
</g>
<g>
	<text transform="matrix(1 0 0 1 317.9297 628.2817)" class="st14 st15">.sass</text>
	
		<use xlink:href="#Pfeil"  width="40.8" height="36.5" x="-20.4" y="-18.2" transform="matrix(1 0 0 -1 295.5981 621.7124)" style="overflow:visible;"/>
</g>
<g>
	<text transform="matrix(1 0 0 1 410.4297 628.2817)" class="st14 st15">.css</text>
	
		<use xlink:href="#Pfeil"  width="40.8" height="36.5" x="-20.4" y="-18.2" transform="matrix(1 0 0 -1 388.3589 621.3452)" style="overflow:visible;"/>
</g>
<use xlink:href="#Klammer"  width="19.8" height="128" x="-9.9" y="-64" transform="matrix(1 0 0 -1 455.0322 574.5396)" style="overflow:visible;"/>
<use xlink:href="#Klammer"  width="19.8" height="128" x="-9.9" y="-64" transform="matrix(1 0 0 -0.6969 360 377.5396)" style="overflow:visible;enable-background:new    ;"/>
<g>
	<g>
		<path class="st16" d="M374,377.5c52.3,0,81.6-65.5,151.4-65.5"/>
		<path class="st17" d="M537.5,312c-5.7,2.1-12.7,5.7-17.1,9.5l3.4-9.5l-3.4-9.5C524.8,306.3,531.8,309.9,537.5,312z"/>
	</g>
</g>
<g>
	<g>
		<path class="st16" d="M468.4,575.2c52.3,0-5.8-91.8,64-91.8"/>
		<path class="st17" d="M544.5,483.4c-5.7,2.1-12.7,5.7-17.1,9.5l3.4-9.5l-3.4-9.5C531.8,477.7,538.8,481.3,544.5,483.4z"/>
	</g>
</g>
</svg>
