<?xml version="1.0" encoding="utf-8"?>
<!-- Generator: Adobe Illustrator 14.0.0, SVG Export Plug-In . SVG Version: 6.00 Build 43363)  -->
<!DOCTYPE svg PUBLIC "-//W3C//DTD SVG 1.1//EN" "http://www.w3.org/Graphics/SVG/1.1/DTD/svg11.dtd">
<svg version="1.1" id="Ebene_1" xmlns="http://www.w3.org/2000/svg" xmlns:xlink="http://www.w3.org/1999/xlink" x="0px" y="0px"
	 width="900px" height="669.079px" viewBox="0 0 900 669.079" enable-background="new 0 0 900 669.079" xml:space="preserve">
<symbol  id="File" viewBox="-14.795 -17.5 29.59 35">
	<g>
		<polygon fill="#92ACFC" stroke="#000000" points="-14.295,17 14.295,17 14.295,-17 -14.295,-17 		"/>
	</g>
</symbol>
<symbol  id="Folder" viewBox="-22.968 -19.102 45.936 38.204">
	<g id="g2642_4_" transform="translate(-342.85714,-542.94643)">
		<g id="shadow_4_" transform="matrix(2.262383e-2,0,0,2.086758e-2,387.2653,580.34254)">
			
				<linearGradient id="rect6709_1_" gradientUnits="userSpaceOnUse" x1="-1339.0625" y1="-907512.625" x2="-1339.0625" y2="-907482.3125" gradientTransform="matrix(3.167336e-05 0 0 -1.878082e-05 1018374.6875 -1211132.375)">
				<stop  offset="0" style="stop-color:#000000;stop-opacity:0"/>
				<stop  offset="0.5" style="stop-color:#000000"/>
				<stop  offset="1" style="stop-color:#000000;stop-opacity:0"/>
			</linearGradient>
			<polygon id="rect6709_4_" opacity="0.4021" fill="url(#rect6709_1_)" enable-background="new    " points="-2632.625,-2229.094 
				-1293.062,-2229.094 -1293.062,-2707.375 -2632.625,-2707.375 			"/>
			
				<radialGradient id="path6711_1_" cx="-51484.4062" cy="-120073.9062" r="4.4819" gradientTransform="matrix(3.167336e-05 0 0 -1.878082e-05 1018375.375 -1211132.375)" gradientUnits="userSpaceOnUse">
				<stop  offset="0" style="stop-color:#000000"/>
				<stop  offset="1" style="stop-color:#000000;stop-opacity:0"/>
			</radialGradient>
			<path id="path6711_4_" opacity="0.4021" fill="url(#path6711_1_)" enable-background="new    " d="M-1293.062-2229.094v-478.281
				c142.875-0.844,345.406,107.156,345.406,239.125C-947.656-2336.188-1107.094-2229.094-1293.062-2229.094z"/>
			
				<radialGradient id="path6713_1_" cx="-125962.7812" cy="-120073.9062" r="4.4819" gradientTransform="matrix(-3.167336e-05 0 0 -1.878082e-05 1064077 -1211132.375)" gradientUnits="userSpaceOnUse">
				<stop  offset="0" style="stop-color:#000000"/>
				<stop  offset="1" style="stop-color:#000000;stop-opacity:0"/>
			</radialGradient>
			<path id="path6713_4_" opacity="0.4021" fill="url(#path6713_1_)" enable-background="new    " d="M-2632.625-2229.094v-478.281
				c-142.875-0.844-345.406,107.156-345.406,239.125C-2978.031-2336.188-2818.625-2229.094-2632.625-2229.094z"/>
		</g>
		<path id="back_4_" fill="#9B9A9A" stroke="#000000" stroke-linecap="round" stroke-linejoin="round" d="M324.068,528.385
			c0.021-0.416,0.461-0.834,0.877-0.834h31.36c0.416,0,0.812,0.418,0.789,0.834l-0.938,27.283c-0.021,0.418-0.459,0.834-0.877,0.834
			h-13.283c-0.486,0-1.236,0.316-1.403,1.109l-0.612,2.898c-0.154,0.736-0.883,1.039-1.299,1.039h-14.795
			c-0.417,0-0.812-0.418-0.79-0.834L324.068,528.385z"/>
		<g id="front_4_">
			<path id="orange_4_" fill="#FCA342" stroke="#CE5C00" stroke-linejoin="round" d="M359.402,527.555
				c1.137,0.043,1.951,1.094,2.033,2.316c0.786,11.521,1.646,21.186,1.646,21.186c0.072,0.248-0.165,0.494-0.477,0.494h-34.134
				l-1.838-21.82c-0.112-0.979-0.463-1.801-1.539-2.18L359.402,527.555z"/>
			<path id="path323_4_" fill="#FFFFFF" fill-opacity="0.0893" d="M329.447,550.793l-1.158-15.611c0,0,8.238,4.143,18.537,4.143
				s15.449,11.471,15.449,11.471L329.447,550.793L329.447,550.793z"/>
		</g>
	</g>
</symbol>
<symbol  id="Folder_1" viewBox="-22.969 -19.102 45.937 38.203">
	<g id="g2642_3_" transform="translate(-342.85714,-542.94643)">
		<g id="shadow_3_" transform="matrix(2.262383e-2,0,0,2.086758e-2,387.2653,580.34254)">
			
				<linearGradient id="rect6709_2_" gradientUnits="userSpaceOnUse" x1="-1339.125" y1="-2518.2188" x2="-1339.125" y2="-2487.9111" gradientTransform="matrix(3.167336e-05 0 0 -1.878082e-05 1018374.6875 -1211132.375)">
				<stop  offset="0" style="stop-color:#000000;stop-opacity:0"/>
				<stop  offset="0.5" style="stop-color:#000000"/>
				<stop  offset="1" style="stop-color:#000000;stop-opacity:0"/>
			</linearGradient>
			<polygon id="rect6709_3_" opacity="0.4021" fill="url(#rect6709_2_)" enable-background="new    " points="-2632.688,-2229.094 
				-1293.062,-2229.094 -1293.062,-2707.375 -2632.688,-2707.375 			"/>
			
				<radialGradient id="path6711_2_" cx="-1120.3438" cy="-2468.25" r="4.4816" gradientTransform="matrix(3.167336e-05 0 0 -1.878082e-05 1018375.375 -1211132.375)" gradientUnits="userSpaceOnUse">
				<stop  offset="0" style="stop-color:#000000"/>
				<stop  offset="1" style="stop-color:#000000;stop-opacity:0"/>
			</radialGradient>
			<path id="path6711_3_" opacity="0.4021" fill="url(#path6711_2_)" enable-background="new    " d="M-1293.062-2229.094v-478.281
				c142.875-0.844,345.406,107.156,345.406,239.125C-947.656-2336.188-1107.156-2229.094-1293.062-2229.094z"/>
			
				<radialGradient id="path6713_2_" cx="-2805.375" cy="-2468.25" r="4.4816" gradientTransform="matrix(-3.167336e-05 0 0 -1.878082e-05 1064077 -1211132.375)" gradientUnits="userSpaceOnUse">
				<stop  offset="0" style="stop-color:#000000"/>
				<stop  offset="1" style="stop-color:#000000;stop-opacity:0"/>
			</radialGradient>
			<path id="path6713_3_" opacity="0.4021" fill="url(#path6713_2_)" enable-background="new    " d="M-2632.688-2229.094v-478.281
				c-142.875-0.844-345.406,107.156-345.406,239.125C-2978.094-2336.188-2818.688-2229.094-2632.688-2229.094z"/>
		</g>
		<path id="back_3_" fill="#9B9A9A" stroke="#000000" stroke-linecap="round" stroke-linejoin="round" d="M324.067,528.385
			c0.021-0.416,0.461-0.834,0.877-0.834h31.36c0.416,0,0.812,0.418,0.789,0.834l-0.938,27.283c-0.021,0.418-0.461,0.834-0.877,0.834
			h-13.284c-0.486,0-1.236,0.316-1.403,1.109l-0.612,2.898c-0.154,0.736-0.883,1.039-1.299,1.039h-14.795
			c-0.417,0-0.812-0.418-0.79-0.834L324.067,528.385z"/>
		<g id="front_3_">
			<path id="orange_3_" fill="#7FA1FF" stroke="#4410FF" stroke-linejoin="round" d="M359.402,527.555
				c1.135,0.043,1.949,1.094,2.032,2.316c0.786,11.521,1.647,21.186,1.647,21.186c0.072,0.248-0.166,0.494-0.477,0.494h-34.135
				l-1.838-21.82c-0.112-0.979-0.463-1.801-1.539-2.18L359.402,527.555z"/>
			<path id="path323_3_" fill="#FFFFFF" fill-opacity="0.0893" d="M329.446,550.793l-1.158-15.611c0,0,8.238,4.143,18.538,4.143
				c10.299,0,15.447,11.471,15.447,11.471L329.446,550.793L329.446,550.793z"/>
		</g>
	</g>
</symbol>
<symbol  id="Klammer" viewBox="-9.875 -64 19.75 128">
	<path fill="none" stroke="#EF6060" stroke-width="2" d="M-9.875,63c21.75,0-1.75-63,19.75-63 M-9.875-63c21.75,0-1.75,63,19.75,63"
		/>
</symbol>
<symbol  id="Pfeil" viewBox="-20.396 -18.23 40.792 36.462">
	<polygon fill="#DE22FF" stroke="#000000" points="19.695,-0.806 3.026,17.019 2.927,14.667 3.015,8.546 -19.896,8.648 
		-19.896,-9.587 3.015,-9.495 3.015,-17.046 	"/>
</symbol>
<g id="Ebene_2_6_">
	<rect fill="#FFFFFF" stroke="#000000" width="900" height="669.079"/>
</g>
<g>
	<g id="Ebene_2">
		
			<use xlink:href="#Folder"  width="45.936" height="38.204" x="-22.968" y="-19.102" transform="matrix(1 0 0 -1 42.9727 133.5337)" overflow="visible"/>
	</g>
	<text transform="matrix(1 0 0 1 70.0039 142.4321)" font-family="'MyriadPro-Regular'" font-size="24">assets</text>
</g>
<g>
	<g id="Ebene_2_1_">
		
			<use xlink:href="#Folder"  width="45.936" height="38.204" x="-22.968" y="-19.102" transform="matrix(1 0 0 -1 86.8784 186.5337)" overflow="visible"/>
	</g>
	<text transform="matrix(1 0 0 1 113.9097 195.4321)" font-family="'MyriadPro-Regular'" font-size="24">images</text>
</g>
<g>
	<g id="Ebene_2_2_">
		
			<use xlink:href="#Folder"  width="45.936" height="38.204" x="-22.968" y="-19.102" transform="matrix(1 0 0 -1 84.8472 299.0332)" overflow="visible"/>
	</g>
	<text transform="matrix(1 0 0 1 111.8784 307.9321)" font-family="'MyriadPro-Regular'" font-size="24">javascripts</text>
</g>
<g>
	<g id="Ebene_2_3_">
		
			<use xlink:href="#Folder"  width="45.936" height="38.204" x="-22.968" y="-19.102" transform="matrix(1 0 0 -1 81.6851 476.981)" overflow="visible"/>
	</g>
	<text transform="matrix(1 0 0 1 108.7163 485.8794)" font-family="'MyriadPro-Regular'" font-size="24">stylesheets</text>
</g>
<g>
	<g>
		<path fill="none" stroke="#F99532" stroke-width="2" d="M229.628,239.388c176.125-2.229,138.291-41.837,295.808-40.633"/>
		<path fill="#F99532" d="M537.508,198.754c-5.68,2.107-12.728,5.703-17.094,9.51l3.438-9.51l-3.438-9.51
			C524.78,193.051,531.828,196.648,537.508,198.754z"/>
	</g>
</g>
<text transform="matrix(1 0 0 1 36.5029 59.5503)" font-family="'MyriadPro-Regular'" font-size="36">Asset Pipeline</text>
<g>
	<rect x="104.411" y="221.04" fill="#FFC65F" stroke="#BC5E08" width="28.59" height="34"/>
	<text transform="matrix(1 0 0 1 140.4819 246.4321)" font-family="'MyriadPro-Regular'" font-size="24">rails.png</text>
</g>
<g>
	<rect x="104.411" y="334.79" fill="#FFC65F" stroke="#BC5E08" width="28.59" height="34"/>
	<text transform="matrix(1 0 0 1 140.4814 360.1821)" font-family="'MyriadPro-Regular'" font-size="24">application.js</text>
</g>
<g>
	<rect x="104.411" y="513.987" fill="#FFC65F" stroke="#BC5E08" width="28.59" height="34"/>
	<text transform="matrix(1 0 0 1 140.4814 539.3794)" font-family="'MyriadPro-Regular'" font-size="24">application.css</text>
</g>
<g>
	<rect x="104.411" y="560.018" fill="#FFC65F" stroke="#BC5E08" width="28.59" height="34"/>
	<text transform="matrix(1 0 0 1 140.4814 585.4126)" font-family="'MyriadPro-Regular'" font-size="24">main.css.sass</text>
</g>
<g>
	<rect x="104.411" y="378.79" fill="#FFC65F" stroke="#BC5E08" width="28.59" height="34"/>
	<text transform="matrix(1 0 0 1 140.4814 404.1821)" font-family="'MyriadPro-Regular'" font-size="24">main.js.coffee</text>
</g>
<g>
	<rect x="104.411" y="604.018" fill="#FFC65F" stroke="#BC5E08" width="28.59" height="34"/>
	<text transform="matrix(1 0 0 1 140.4819 629.4126)" font-family="'MyriadPro-Regular'" font-size="24">x.css.sass.erb</text>
</g>
<g>
	<g id="Ebene_2_4_">
		
			<use xlink:href="#Folder_1"  width="45.937" height="38.203" x="-22.969" y="-19.102" transform="matrix(1 0 0 -1 465.4922 78.6528)" overflow="visible"/>
	</g>
	<text transform="matrix(1 0 0 1 492.5234 87.5513)" font-family="'MyriadPro-Regular'" font-size="24">public</text>
</g>
<g>
	<g id="Ebene_2_5_">
		
			<use xlink:href="#Folder_1"  width="45.937" height="38.203" x="-22.969" y="-19.102" transform="matrix(1 0 0 -1 500.4922 133.5073)" overflow="visible"/>
	</g>
	<text transform="matrix(1 0 0 1 527.5234 142.4067)" font-family="'MyriadPro-Regular'" font-size="24">assets</text>
</g>
<g>
	
		<use xlink:href="#File"  width="29.59" height="35" x="-14.795" y="-17.5" transform="matrix(1 0 0 -1 561.9912 197.5508)" overflow="visible"/>
	<text transform="matrix(1 0 0 1 583.7676 205.9438)" font-family="'MyriadPro-Regular'" font-size="24">rails.png</text>
</g>
<g>
	<text transform="matrix(1 0 0 1 583.7676 245.5522)" font-family="'MyriadPro-Regular'" font-size="24">rails-be8732da.png</text>
	
		<use xlink:href="#File"  width="29.59" height="35" x="-14.795" y="-17.5" transform="matrix(1 0 0 -1 561.9912 237.3882)" overflow="visible"/>
</g>
<g>
	<text transform="matrix(1 0 0 1 583.7676 320.479)" font-family="'MyriadPro-Regular'" font-size="24">application.js</text>
	
		<use xlink:href="#File"  width="29.59" height="35" x="-14.795" y="-17.5" transform="matrix(1 0 0 -1 560.9912 312.4351)" overflow="visible"/>
</g>
<g>
	<text transform="matrix(1 0 0 1 583.7676 397.2104)" font-family="'MyriadPro-Regular'" font-size="24">application-3374f2a8.js</text>
	
		<use xlink:href="#File"  width="29.59" height="35" x="-14.795" y="-17.5" transform="matrix(1 0 0 -1 561.8789 388.1987)" overflow="visible"/>
</g>
<g>
	<text transform="matrix(1 0 0 1 583.7676 435.5747)" font-family="'MyriadPro-Regular'" font-size="24">application-3374f2a8.js.gz</text>
	
		<use xlink:href="#File"  width="29.59" height="35" x="-14.795" y="-17.5" transform="matrix(1 0 0 -1 561.8789 427.4341)" overflow="visible"/>
</g>
<g>
	<text transform="matrix(1 0 0 1 583.7676 358.8442)" font-family="'MyriadPro-Regular'" font-size="24">application.js.gz</text>
	
		<use xlink:href="#File"  width="29.59" height="35" x="-14.795" y="-17.5" transform="matrix(1 0 0 -1 561.9912 350.4517)" overflow="visible"/>
</g>
<g>
	<text transform="matrix(1 0 0 1 583.7676 491.1851)" font-family="'MyriadPro-Regular'" font-size="24">application.css</text>
	
		<use xlink:href="#File"  width="29.59" height="35" x="-14.795" y="-17.5" transform="matrix(1 0 0 -1 561.8789 483.1226)" overflow="visible"/>
</g>
<g>
	<text transform="matrix(1 0 0 1 583.7676 530.1733)" font-family="'MyriadPro-Regular'" font-size="24">application.css.gz</text>
	
		<use xlink:href="#File"  width="29.59" height="35" x="-14.795" y="-17.5" transform="matrix(1 0 0 -1 562.5117 522.3589)" overflow="visible"/>
</g>
<g>
	<text transform="matrix(1 0 0 1 583.7676 569.1626)" font-family="'MyriadPro-Regular'" font-size="24">application-3c9de844.css</text>
	
		<use xlink:href="#File"  width="29.59" height="35" x="-14.795" y="-17.5" transform="matrix(1 0 0 -1 561.8789 561.5942)" overflow="visible"/>
</g>
<g>
	<text transform="matrix(1 0 0 1 583.7676 608.1509)" font-family="'MyriadPro-Regular'" font-size="24">application-3c9de844.css.gz</text>
	
		<use xlink:href="#File"  width="29.59" height="35" x="-14.795" y="-17.5" transform="matrix(1 0 0 -1 561.8789 600.1968)" overflow="visible"/>
</g>
<g>
	
		<use xlink:href="#Pfeil"  width="40.792" height="36.462" x="-20.396" y="-18.23" transform="matrix(1 0 0 -1 306.291 397.1235)" overflow="visible"/>
	<text transform="matrix(1 0 0 1 328.2314 404.4321)" font-family="'MyriadPro-Regular'" font-size="24">.js</text>
</g>
<g>
	<text transform="matrix(1 0 0 1 319.0518 584.2817)" font-family="'MyriadPro-Regular'" font-size="24">.css</text>
	
		<use xlink:href="#Pfeil"  width="40.792" height="36.462" x="-20.396" y="-18.23" transform="matrix(1 0 0 -1 297.4971 577.0474)" overflow="visible"/>
</g>
<g>
	<text transform="matrix(1 0 0 1 317.9297 628.2817)" font-family="'MyriadPro-Regular'" font-size="24">.sass</text>
	
		<use xlink:href="#Pfeil"  width="40.792" height="36.462" x="-20.396" y="-18.23" transform="matrix(1 0 0 -1 295.5981 621.7134)" overflow="visible"/>
</g>
<g>
	<text transform="matrix(1 0 0 1 410.4297 628.2817)" font-family="'MyriadPro-Regular'" font-size="24">.css</text>
	
		<use xlink:href="#Pfeil"  width="40.792" height="36.462" x="-20.396" y="-18.23" transform="matrix(1 0 0 -1 388.3589 621.3462)" overflow="visible"/>
</g>
<use xlink:href="#Klammer"  width="19.75" height="128" x="-9.875" y="-64" transform="matrix(1 0 0 -1 455.0322 574.5396)" overflow="visible"/>
<use xlink:href="#Klammer"  width="19.75" height="128" x="-9.875" y="-64" transform="matrix(1 0 0 -0.6969 360 377.5396)" overflow="visible"/>
<g>
	<g>
		<path fill="none" stroke="#F99532" stroke-width="2" d="M374.006,377.54c52.348,0,81.575-65.491,151.43-65.491"/>
		<path fill="#F99532" d="M537.508,312.047c-5.68,2.107-12.728,5.703-17.094,9.51l3.438-9.51l-3.438-9.51
			C524.78,306.344,531.828,309.941,537.508,312.047z"/>
	</g>
</g>
<g>
	<g>
		<path fill="none" stroke="#F99532" stroke-width="2" d="M468.416,575.163c52.348,0-5.835-91.787,64.021-91.787"/>
		<path fill="#F99532" d="M544.508,483.375c-5.68,2.105-12.728,5.703-17.094,9.51l3.438-9.51l-3.438-9.512
			C531.78,477.67,538.828,481.268,544.508,483.375z"/>
	</g>
</g>
</svg>
