<?xml version="1.0" encoding="utf-8"?>
<!-- Generator: Adobe Illustrator 22.0.1, SVG Export Plug-In . SVG Version: 6.00 Build 0)  -->
<svg version="1.1" id="Ebene_1" xmlns="http://www.w3.org/2000/svg" xmlns:xlink="http://www.w3.org/1999/xlink" x="0px" y="0px"
	 viewBox="0 0 712.8 460.9" style="enable-background:new 0 0 712.8 460.9;" xml:space="preserve">
<style type="text/css">
	.st0{fill:#AECCED;stroke:#000000;}
	.st1{font-family:'Arial';}
	.st2{font-size:14px;}
	.st3{fill:#FFFDFD;stroke:#000000;}
	.st4{fill:#2C22FF;}
	.st5{fill:#FFA63F;}
	.st6{fill:#F9DA41;stroke:#000000;stroke-dasharray:12;}
	.st7{fill:#2266FF;}
</style>
<rect x="146.9" y="60.9" class="st0" width="437.3" height="371.1"/>
<text transform="matrix(1 0 0 1 146.9274 31.5913)" class="st1 st2">Layouts, Views and Partials</text>
<text transform="matrix(1 0 0 1 153.1666 79.4146)" class="st1 st2">app/views/layouts/application.html.erb</text>
<rect x="172.1" y="153.6" class="st3" width="377.2" height="207"/>
<text transform="matrix(1 0 0 1 180.2789 171.0771)"><tspan x="0" y="0" class="st1 st2">app/views/</tspan><tspan x="66.1" y="0" class="st4 st1 st2">controller</tspan><tspan x="123.7" y="0" class="st1 st2">/</tspan><tspan x="127.6" y="0" class="st5 st1 st2">action</tspan><tspan x="165" y="0" class="st1 st2">.html.erb</tspan></text>
<rect x="172.1" y="93.3" class="st6" width="377.2" height="42.5"/>
<text transform="matrix(1 0 0 1 185.0953 117.542)" class="st1 st2">app/views/shared/_topmenu.html.erb</text>
<rect x="194.7" y="218.8" class="st6" width="329" height="114"/>
<text transform="matrix(1 0 0 1 207.7018 242.9722)"><tspan x="0" y="0" class="st1 st2">app/views/</tspan><tspan x="66.1" y="0" class="st7 st1 st2">controller</tspan><tspan x="123.7" y="0" class="st1 st2">/_form.html.erb</tspan></text>
</svg>
