<?xml version="1.0" encoding="utf-8"?>
<!-- Generator: Adobe Illustrator 22.0.1, SVG Export Plug-In . SVG Version: 6.00 Build 0)  -->
<svg version="1.1" id="Ebene_1" xmlns="http://www.w3.org/2000/svg" xmlns:xlink="http://www.w3.org/1999/xlink" x="0px" y="0px"
	 viewBox="0 0 762 324.9" style="enable-background:new 0 0 762 324.9;" xml:space="preserve">
<style type="text/css">
	.st0{fill:#AECCED;stroke:#000000;}
	.st1{font-family:'Arial';}
	.st2{font-size:28px;}
	.st3{font-size:14px;}
	.st4{fill:#FFFDFD;stroke:#000000;}
	.st5{fill:#2C22FF;}
	.st6{fill:#FFA63F;}
	.st7{display:none;}
	.st8{display:inline;fill:#F9DA41;stroke:#000000;stroke-dasharray:12;}
	.st9{display:inline;}
	.st10{display:inline;fill:#2266FF;}
</style>
<rect x="146.6" y="60.9" class="st0" width="437.3" height="233.1"/>
<text transform="matrix(1 0 0 1 146.6477 32.252)" class="st1 st2">Layouts, Views </text>
<text transform="matrix(1 0 0 1 152.887 79.415)" class="st1 st3">app/views/layouts/application.html.erb</text>
<rect x="171.8" y="153.6" class="st4" width="377.2" height="109.4"/>
<text transform="matrix(1 0 0 1 179.9993 171.0771)" class="st1 st3">app/views/</text>
<text transform="matrix(1 0 0 1 248.0544 171.0771)" class="st5 st1 st3">controller</text>
<text transform="matrix(1 0 0 1 306.2932 171.0771)" class="st1 st3">/</text>
<text transform="matrix(1 0 0 1 310.635 171.0771)" class="st6 st1 st3">action</text>
<text transform="matrix(1 0 0 1 350.6794 171.0771)" class="st1 st3">.html.erb</text>
<g id="Ebene_2" class="st7">
	<rect x="194.4" y="218.8" class="st8" width="329" height="114"/>
	<text transform="matrix(1 0 0 1 207.4221 242.9727)" class="st9 st1 st3">app/views/</text>
	<text transform="matrix(1 0 0 1 284.4773 242.9727)" class="st10 st1 st3">controller</text>
	<text transform="matrix(1 0 0 1 354.7161 242.9727)" class="st9 st1 st3">/_form.html.erb</text>
	<text transform="matrix(1 0 0 1 184.8157 117.542)" class="st9 st1 st3">app/views/shared/_topmenu.html.erb</text>
	<text transform="matrix(1 0 0 1 257.7458 32.252)" class="st9 st1 st3">and Partials</text>
	<rect x="171.8" y="93.3" class="st8" width="377.2" height="42.5"/>
</g>
</svg>
